<svg xmlns="http://www.w3.org/2000/svg" version="1.1" viewBox="25.32 31.39 747.68 536.5" width="373.5097546045366" height="267.73062488254874"><path d="M 137.121 62.181 C 133.952 70.517, 56.561 383.868, 54.958 394.857 C 53.057 407.883, 54.219 431.074, 57.410 443.797 C 63.604 468.496, 74.669 487.766, 92.474 504.859 C 110.813 522.466, 132.686 533.124, 159.500 537.517 C 176.560 540.313, 183.855 539.955, 323.500 529.464 C 436.644 520.965, 731.124 497.950, 732.653 497.487 C 733.369 497.270, 727.356 480.928, 716.768 454.319 C 707.398 430.768, 672.352 342.472, 638.887 258.104 C 605.422 173.737, 577.819 104.486, 577.547 104.214 C 576.876 103.542, 367.677 82.482, 183 64.493 C 163.475 62.591, 145.367 60.761, 142.760 60.425 C 138.428 59.868, 137.944 60.018, 137.121 62.181 M 224.072 95.553 C 215.878 97.330, 204.969 102.532, 198.272 107.856 C 187.400 116.498, 178.716 133.140, 177.845 147 L 177.500 152.500 191.658 152.777 L 205.815 153.054 206.530 148.777 C 208.156 139.041, 214.784 130.252, 223.764 125.924 C 230.495 122.681, 241.515 122.662, 248.714 125.883 C 255.116 128.747, 262.058 135.967, 264.462 142.261 C 266.866 148.557, 266.242 160.730, 263.213 166.616 C 257.913 176.918, 251.763 181, 241.540 181 L 235 181 235 194.955 L 235 208.909 238.750 209.519 C 246.738 210.816, 251.316 213.261, 257.488 219.525 C 276.936 239.262, 281.587 272.943, 268.531 299.500 C 263.087 310.575, 257.207 317.379, 247.430 323.918 C 237.482 330.572, 226.657 334.016, 213.459 334.726 C 177.225 336.675, 146.938 314.300, 140.394 280.750 L 138.687 272 123.344 272 C 114.579 272, 108 272.398, 108 272.928 C 108 273.438, 108.487 277.357, 109.082 281.636 C 113.543 313.710, 133.615 341.229, 163.500 356.246 C 222.682 385.985, 294.038 349.749, 305.532 284.119 C 309.763 259.961, 304.281 232.266, 291.594 213.706 C 290.167 211.619, 289 209.706, 289 209.456 C 289 209.205, 296.650 209, 306 209 L 323 209 323 247 L 323 285 337.500 285 L 352 285 352 220 L 352 155 360.500 155 L 369 155 369 229 L 369 303 346 303 L 323 303 323 317.500 L 323 332 346 332 L 369 332 369 346.079 L 369 360.158 342.750 359.494 C 320.964 358.942, 315.154 359.096, 308.583 360.398 C 287.311 364.614, 275.113 376.172, 272.067 395 C 269.286 412.185, 270.653 417.507, 294.605 482.750 L 296.165 487 311.024 487 C 319.196 487, 326.079 486.663, 326.320 486.250 C 326.561 485.837, 321.439 471.100, 314.939 453.500 C 301.575 417.318, 301 415.405, 301 407.122 C 301 397.402, 303.875 392.409, 311.500 388.890 C 315.002 387.274, 318.255 387.041, 337.610 387.022 C 349.771 387.010, 361.811 387.287, 364.366 387.637 L 369.011 388.273 368.342 437.665 L 367.673 487.057 382.086 486.778 L 396.500 486.500 396.756 409.250 L 397.012 332 447.256 332.006 C 474.890 332.009, 501.212 332.301, 505.750 332.654 L 514 333.296 514 350.457 L 514 367.617 506.250 363.788 C 475.685 348.687, 437.964 360.857, 423.456 390.500 C 418.743 400.130, 417 407.775, 417 418.816 C 417 448.202, 435.309 471.790, 463.766 479.068 C 478.180 482.754, 494.656 480.671, 507.673 473.516 L 514 470.038 514 478.519 L 514 487 528.454 487 L 542.909 487 543.204 449.750 L 543.500 412.500 546.160 406.825 C 549.710 399.253, 555.656 393.004, 562.710 389.432 C 568.293 386.605, 569 386.500, 582.500 386.500 C 595.739 386.500, 596.826 386.652, 602.500 389.301 C 610.087 392.843, 616.289 398.825, 620.329 406.500 C 623.229 412.009, 623.488 413.278, 623.494 422 C 623.499 430.402, 623.174 432.163, 620.682 437.239 C 617.088 444.557, 610.546 451.097, 603.245 454.669 C 598.218 457.128, 596.030 457.537, 585.505 457.987 L 573.500 458.500 573.500 472.500 L 573.500 486.500 585.157 486.332 C 605.830 486.033, 619.091 480.855, 632.095 468.005 C 645.565 454.695, 651.502 440.384, 651.389 421.500 C 651.333 412.134, 650.897 409.241, 648.455 402.024 C 642.979 385.847, 631.861 372.793, 616.957 365.038 C 606.417 359.555, 599.136 358.030, 583.500 358.030 C 568.543 358.030, 560.807 359.521, 551.088 364.276 C 547.465 366.049, 544.163 367.650, 543.750 367.833 C 543.337 368.017, 543 360.259, 543 350.594 L 543 333.022 585.250 332.761 L 627.500 332.500 627.776 318.414 L 628.053 304.329 560.361 303.664 C 523.131 303.299, 471.144 303, 444.835 303 L 397 303 397 229 L 397 155 453.500 155 L 510 155 510 168 L 510 181 489.500 181 L 469 181 468.996 215.750 C 468.993 248.201, 468.866 250.707, 467.081 253.635 C 463.430 259.622, 453.482 261.511, 447.219 257.408 C 442.310 254.191, 442 251.673, 442 215.032 L 442 181 427.500 181 L 413 181 413 214.451 C 413 235.208, 413.423 249.913, 414.115 253.201 C 418.965 276.263, 441.440 292.359, 462.666 287.971 C 480.725 284.237, 494.445 269.806, 497.048 251.806 C 497.549 248.338, 497.969 237.287, 497.980 227.250 L 498 209 504 209 L 510 209 510 247 L 510 285 525 285 L 540 285 540 220 L 540 155 548.500 155 L 557 155 557 141 L 557 127 481.750 126.999 C 440.363 126.998, 384.563 126.700, 357.750 126.336 L 309 125.673 309 140.337 L 309 155 316 155 L 323 155 323 168 L 323 181 306 181 C 296.650 181, 289 180.887, 289.001 180.750 C 289.001 180.613, 289.854 178.250, 290.898 175.500 C 299.537 152.724, 292.935 124.828, 275.142 108.925 C 261.491 96.724, 242.094 91.645, 224.072 95.553 M 469 385.878 C 459.782 388.902, 451.513 396.172, 447.263 404.987 C 445.089 409.497, 444.596 411.959, 444.553 418.518 C 444.506 425.607, 444.878 427.304, 447.760 433.160 C 451.562 440.887, 456.995 446.179, 464.880 449.837 C 469.435 451.950, 472.020 452.449, 478.521 452.472 C 485.599 452.497, 487.327 452.114, 493.218 449.213 C 505.326 443.253, 512.108 432.421, 512.085 419.084 C 512.066 408.408, 508.660 400.539, 501.100 393.710 C 494.273 387.541, 489.571 385.679, 480 385.350 C 475.325 385.189, 470.375 385.427, 469 385.878 M 25.320 417 C 25.320 420.575, 25.502 422.038, 25.723 420.250 C 25.945 418.462, 25.945 415.538, 25.723 413.750 C 25.502 411.962, 25.320 413.425, 25.320 417" stroke="none" fill="#d70500" fill-rule="evenodd"/><path d="M 114.962 40.944 C 111.107 57.445, 84.681 163.586, 75.486 199.500 C 72.388 211.600, 69.703 222.175, 69.519 223 C 69.185 224.502, 54.268 283.209, 51.352 294.500 C 50.500 297.800, 49.562 301.175, 49.269 302 C 48.976 302.825, 48.611 304.412, 48.460 305.527 C 48.308 306.643, 47.040 311.818, 45.642 317.027 C 35.170 356.053, 27.499 388.668, 26.479 398.500 C 25.741 405.622, 25.748 430.573, 26.491 436.500 C 32.187 481.953, 58.291 522.744, 96 545.117 C 103.399 549.507, 112.220 553.971, 117.695 556.096 C 123.475 558.340, 142.922 564.002, 146.361 564.443 C 148.326 564.694, 152.536 565.334, 155.717 565.865 C 162.409 566.981, 160.214 566.894, 184.276 566.991 C 194.603 567.032, 209.453 566.419, 217.276 565.628 C 225.099 564.837, 232.400 564.188, 233.500 564.185 C 234.600 564.182, 238.200 563.933, 241.500 563.630 C 244.800 563.328, 250.425 562.814, 254 562.489 C 257.575 562.163, 263.650 561.710, 267.500 561.481 C 274.511 561.066, 281.142 560.498, 290.500 559.511 C 293.250 559.221, 299.775 558.747, 305 558.457 C 310.225 558.167, 318.100 557.545, 322.500 557.074 C 326.900 556.604, 331.400 556.194, 332.500 556.163 C 335.791 556.072, 348.837 555.066, 359.500 554.082 C 365 553.574, 370.175 553.159, 371 553.159 C 373.175 553.158, 384.308 552.249, 396.182 551.103 C 401.857 550.555, 407.175 550.120, 408 550.136 C 409.848 550.172, 420.565 549.273, 428.115 548.448 C 431.203 548.111, 436.828 547.672, 440.615 547.472 C 448.152 547.074, 455.723 546.457, 469.500 545.115 C 474.450 544.633, 479.400 544.237, 480.500 544.234 C 484.060 544.225, 499.455 542.916, 501 542.491 C 501.825 542.264, 507.675 541.820, 514 541.504 C 520.325 541.188, 529.335 540.502, 534.023 539.981 C 538.710 539.459, 546.585 538.794, 551.523 538.503 C 556.460 538.213, 561.850 537.802, 563.500 537.590 C 566.924 537.151, 579.195 536.157, 589.500 535.483 C 593.350 535.231, 598.975 534.782, 602 534.483 C 608.600 533.833, 617.820 533.120, 628 532.475 C 632.125 532.214, 639.550 531.604, 644.500 531.120 C 649.450 530.635, 654.400 530.223, 655.500 530.203 C 657.962 530.160, 668.055 529.339, 681.410 528.097 C 686.959 527.581, 692.175 527.176, 693 527.197 C 694.760 527.243, 705.622 526.364, 719 525.095 C 724.225 524.599, 729.400 524.179, 730.500 524.162 C 733.012 524.123, 744.757 523.171, 756.500 522.055 C 761.450 521.584, 765.848 521.412, 766.274 521.673 C 767.453 522.396, 773 520.965, 773 519.938 C 773 519.442, 760.916 488.765, 746.147 451.768 C 731.378 414.771, 711.163 364.025, 701.225 339 C 691.287 313.975, 674.309 271.225, 663.498 244 C 621.133 137.322, 608.766 106.288, 606.511 101 C 605.222 97.975, 602.749 91.796, 601.018 87.269 C 599.286 82.741, 597.489 78.802, 597.024 78.515 C 596.559 78.227, 594.901 77.943, 593.339 77.883 C 591.778 77.822, 587.125 77.381, 583 76.903 C 570.820 75.489, 564.748 74.858, 560.500 74.565 C 558.300 74.413, 553.647 73.950, 550.159 73.536 C 542.341 72.607, 536.137 71.991, 533.500 71.881 C 532.400 71.835, 527.950 71.363, 523.610 70.832 C 519.271 70.301, 512.971 69.673, 509.610 69.437 C 506.250 69.200, 499.317 68.523, 494.204 67.931 C 484.067 66.757, 475.356 65.895, 473 65.833 C 472.175 65.811, 468.575 65.418, 465 64.959 C 461.425 64.500, 454.675 63.852, 450 63.520 C 445.325 63.187, 438.566 62.500, 434.980 61.994 C 431.394 61.487, 425.094 60.834, 420.980 60.542 C 413.584 60.017, 407.745 59.440, 399 58.370 C 396.525 58.067, 393.375 57.790, 392 57.754 C 390.625 57.718, 384.550 57.091, 378.500 56.360 C 372.450 55.630, 365.925 54.976, 364 54.906 C 362.075 54.837, 357.125 54.384, 353 53.900 C 341.875 52.594, 333.692 51.779, 332 51.809 C 331.175 51.824, 326.900 51.409, 322.500 50.887 C 314.005 49.879, 304.805 48.996, 301.500 48.872 C 300.400 48.831, 296.125 48.394, 292 47.902 C 284.373 46.991, 273.720 45.964, 271 45.877 C 270.175 45.851, 265.675 45.386, 261 44.845 C 256.325 44.304, 249.350 43.667, 245.500 43.428 C 241.650 43.190, 235.125 42.546, 231 41.998 C 224.491 41.134, 212.655 40.028, 208 39.850 C 207.175 39.819, 203.575 39.409, 200 38.939 C 196.425 38.470, 189.450 37.840, 184.500 37.539 C 179.550 37.239, 174.375 36.780, 173 36.519 C 170.032 35.957, 160.494 34.965, 153.500 34.491 C 147.474 34.082, 137.158 33.123, 131 32.399 C 128.525 32.107, 124.406 31.761, 121.847 31.628 L 117.195 31.388 114.962 40.944 M 137.121 62.181 C 133.952 70.517, 56.561 383.868, 54.958 394.857 C 53.057 407.883, 54.219 431.074, 57.410 443.797 C 63.604 468.496, 74.669 487.766, 92.474 504.859 C 110.813 522.466, 132.686 533.124, 159.500 537.517 C 176.560 540.313, 183.855 539.955, 323.500 529.464 C 436.644 520.965, 731.124 497.950, 732.653 497.487 C 733.369 497.270, 727.356 480.928, 716.768 454.319 C 707.398 430.768, 672.352 342.472, 638.887 258.104 C 605.422 173.737, 577.819 104.486, 577.547 104.214 C 576.876 103.542, 367.677 82.482, 183 64.493 C 163.475 62.591, 145.367 60.761, 142.760 60.425 C 138.428 59.868, 137.944 60.018, 137.121 62.181" stroke="none" fill="#DADBDD" fill-rule="evenodd"/><path d="M 224.072 95.553 C 215.878 97.330, 204.969 102.532, 198.272 107.856 C 187.400 116.498, 178.716 133.140, 177.845 147 L 177.500 152.500 191.658 152.777 L 205.815 153.054 206.530 148.777 C 208.156 139.041, 214.784 130.252, 223.764 125.924 C 230.495 122.681, 241.515 122.662, 248.714 125.883 C 255.116 128.747, 262.058 135.967, 264.462 142.261 C 266.866 148.557, 266.242 160.730, 263.213 166.616 C 257.913 176.918, 251.763 181, 241.540 181 L 235 181 235 194.955 L 235 208.909 238.750 209.519 C 246.738 210.816, 251.316 213.261, 257.488 219.525 C 276.936 239.262, 281.587 272.943, 268.531 299.500 C 263.087 310.575, 257.207 317.379, 247.430 323.918 C 237.482 330.572, 226.657 334.016, 213.459 334.726 C 177.225 336.675, 146.938 314.300, 140.394 280.750 L 138.687 272 123.344 272 C 114.579 272, 108 272.398, 108 272.928 C 108 273.438, 108.487 277.357, 109.082 281.636 C 113.543 313.710, 133.615 341.229, 163.500 356.246 C 222.682 385.985, 294.038 349.749, 305.532 284.119 C 309.763 259.961, 304.281 232.266, 291.594 213.706 C 290.167 211.619, 289 209.706, 289 209.456 C 289 209.205, 296.650 209, 306 209 L 323 209 323 247 L 323 285 337.500 285 L 352 285 352 220 L 352 155 360.500 155 L 369 155 369 229 L 369 303 346 303 L 323 303 323 317.500 L 323 332 346 332 L 369 332 369 346.079 L 369 360.158 342.750 359.494 C 320.964 358.942, 315.154 359.096, 308.583 360.398 C 287.311 364.614, 275.113 376.172, 272.067 395 C 269.286 412.185, 270.653 417.507, 294.605 482.750 L 296.165 487 311.024 487 C 319.196 487, 326.079 486.663, 326.320 486.250 C 326.561 485.837, 321.439 471.100, 314.939 453.500 C 301.575 417.318, 301 415.405, 301 407.122 C 301 397.402, 303.875 392.409, 311.500 388.890 C 315.002 387.274, 318.255 387.041, 337.610 387.022 C 349.771 387.010, 361.811 387.287, 364.366 387.637 L 369.011 388.273 368.342 437.665 L 367.673 487.057 382.086 486.778 L 396.500 486.500 396.756 409.250 L 397.012 332 447.256 332.006 C 474.890 332.009, 501.212 332.301, 505.750 332.654 L 514 333.296 514 350.457 L 514 367.617 506.250 363.788 C 475.685 348.687, 437.964 360.857, 423.456 390.500 C 418.743 400.130, 417 407.775, 417 418.816 C 417 448.202, 435.309 471.790, 463.766 479.068 C 478.180 482.754, 494.656 480.671, 507.673 473.516 L 514 470.038 514 478.519 L 514 487 528.454 487 L 542.909 487 543.204 449.750 L 543.500 412.500 546.160 406.825 C 549.710 399.253, 555.656 393.004, 562.710 389.432 C 568.293 386.605, 569 386.500, 582.500 386.500 C 595.739 386.500, 596.826 386.652, 602.500 389.301 C 610.087 392.843, 616.289 398.825, 620.329 406.500 C 623.229 412.009, 623.488 413.278, 623.494 422 C 623.499 430.402, 623.174 432.163, 620.682 437.239 C 617.088 444.557, 610.546 451.097, 603.245 454.669 C 598.218 457.128, 596.030 457.537, 585.505 457.987 L 573.500 458.500 573.500 472.500 L 573.500 486.500 585.157 486.332 C 605.830 486.033, 619.091 480.855, 632.095 468.005 C 645.565 454.695, 651.502 440.384, 651.389 421.500 C 651.333 412.134, 650.897 409.241, 648.455 402.024 C 642.979 385.847, 631.861 372.793, 616.957 365.038 C 606.417 359.555, 599.136 358.030, 583.500 358.030 C 568.543 358.030, 560.807 359.521, 551.088 364.276 C 547.465 366.049, 544.163 367.650, 543.750 367.833 C 543.337 368.017, 543 360.259, 543 350.594 L 543 333.022 585.250 332.761 L 627.500 332.500 627.776 318.414 L 628.053 304.329 560.361 303.664 C 523.131 303.299, 471.144 303, 444.835 303 L 397 303 397 229 L 397 155 453.500 155 L 510 155 510 168 L 510 181 489.500 181 L 469 181 468.996 215.750 C 468.993 248.201, 468.866 250.707, 467.081 253.635 C 463.430 259.622, 453.482 261.511, 447.219 257.408 C 442.310 254.191, 442 251.673, 442 215.032 L 442 181 427.500 181 L 413 181 413 214.451 C 413 235.208, 413.423 249.913, 414.115 253.201 C 418.965 276.263, 441.440 292.359, 462.666 287.971 C 480.725 284.237, 494.445 269.806, 497.048 251.806 C 497.549 248.338, 497.969 237.287, 497.980 227.250 L 498 209 504 209 L 510 209 510 247 L 510 285 525 285 L 540 285 540 220 L 540 155 548.500 155 L 557 155 557 141 L 557 127 481.750 126.999 C 440.363 126.998, 384.563 126.700, 357.750 126.336 L 309 125.673 309 140.337 L 309 155 316 155 L 323 155 323 168 L 323 181 306 181 C 296.650 181, 289 180.887, 289.001 180.750 C 289.001 180.613, 289.854 178.250, 290.898 175.500 C 299.537 152.724, 292.935 124.828, 275.142 108.925 C 261.491 96.724, 242.094 91.645, 224.072 95.553 M 469 385.878 C 459.782 388.902, 451.513 396.172, 447.263 404.987 C 445.089 409.497, 444.596 411.959, 444.553 418.518 C 444.506 425.607, 444.878 427.304, 447.760 433.160 C 451.562 440.887, 456.995 446.179, 464.880 449.837 C 469.435 451.950, 472.020 452.449, 478.521 452.472 C 485.599 452.497, 487.327 452.114, 493.218 449.213 C 505.326 443.253, 512.108 432.421, 512.085 419.084 C 512.066 408.408, 508.660 400.539, 501.100 393.710 C 494.273 387.541, 489.571 385.679, 480 385.350 C 475.325 385.189, 470.375 385.427, 469 385.878 M 177.292 567.742 C 181.027 567.935, 186.877 567.934, 190.292 567.739 C 193.706 567.545, 190.650 567.387, 183.500 567.389 C 176.350 567.390, 173.556 567.550, 177.292 567.742" stroke="none" fill="#ffffff" fill-rule="evenodd"/></svg>