<?xml version="1.0" encoding="UTF-8"?>
<svg version="1.1" xmlns="http://www.w3.org/2000/svg" width="500" height="500">
<path d="M0 0 C51.81 0 103.62 0 157 0 C157 52.14 157 104.28 157 158 C105.19 158 53.38 158 0 158 C0 105.86 0 53.72 0 0 Z M46.0859375 53.4921875 C44.57174452 55.94622439 43.24308016 58.39928962 42 61 C41.67386719 61.67675781 41.34773438 62.35351562 41.01171875 63.05078125 C36.94102769 72.06032023 36.39525245 82.35558908 39.625 91.75 C40.37660813 93.51757499 41.1683267 95.26865496 42 97 C42.38929688 97.85335937 42.77859375 98.70671875 43.1796875 99.5859375 C47.95395727 108.76722551 56.19276557 114.80471325 65.75 118.5 C83.20835749 123.96349737 99.51472746 120.66425911 116 114 C116 109.38 116 104.76 116 100 C115.0821875 100.40992188 114.164375 100.81984375 113.21875 101.2421875 C99.26266686 107.41060099 85.19068606 111.29547679 70.125 105.92578125 C61.60752056 102.21504113 61.60752056 102.21504113 60 99 C59.34 99 58.68 99 58 99 C57.731875 98.29875 57.46375 97.5975 57.1875 96.875 C56.06394776 93.97437597 56.06394776 93.97437597 54.45703125 91.3359375 C52.73984806 87.40437062 52.46604493 83.96844541 52.5 79.75 C52.50064453 79.00290771 52.50128906 78.25581543 52.50195312 77.48608398 C52.65374382 71.83126872 53.9036796 67.6476522 56.90625 62.78515625 C58.1741436 61.06470256 58.1741436 61.06470256 58 59 C58.66 59 59.32 59 60 59 C60 58.34 60 57.68 60 57 C62.82208874 55.56645606 65.6706742 54.22438695 68.5625 52.9375 C69.70912109 52.42509766 69.70912109 52.42509766 70.87890625 51.90234375 C80.7588333 47.69928086 93.9589771 48.76917349 103.875 52.375 C105.92286077 53.23540342 107.9650937 54.10939114 110 55 C111.98 55.66 113.96 56.32 116 57 C116 52.71 116 48.42 116 44 C105.66783775 39.04056212 96.15652387 37.37930395 84.6875 37.3125 C83.52057617 37.29380859 82.35365234 37.27511719 81.15136719 37.25585938 C68.02238463 37.42670328 54.29553911 42.80295112 46.0859375 53.4921875 Z " fill="#040404" transform="translate(343,171)"/>
<path d="M0 0 C52.14 0 104.28 0 158 0 C158.0309375 38.8265625 158.0309375 38.8265625 158.0625 78.4375 C158.071604 86.6248999 158.08070801 94.8122998 158.09008789 103.24780273 C158.09460449 113.20910645 158.09460449 113.20910645 158.09544373 117.8653717 C158.09637924 121.1328346 158.10014197 124.40028141 158.10557556 127.66773987 C158.11240221 131.82760415 158.11449721 135.98744483 158.11307228 140.14731419 C158.11337051 141.67897013 158.11537252 143.21062683 158.11921513 144.74227798 C158.12414342 146.8013189 158.12240385 148.86037264 158.12025452 150.91941833 C158.12163721 152.65469363 158.12163721 152.65469363 158.12304783 154.42502499 C158 157 158 157 157 158 C154.97505378 158.09676414 152.94667458 158.12186986 150.91941833 158.12025452 C149.5997856 158.12163201 148.28015287 158.12300951 146.92053127 158.12442875 C145.43847572 158.12088147 143.95642037 158.11724357 142.47436523 158.11352539 C140.90231103 158.11321929 139.33025669 158.11335215 137.75820255 158.11389065 C133.53370843 158.11411717 129.30924241 158.10830528 125.08475494 158.10128021 C121.1262045 158.09560138 117.16766103 158.09531797 113.20910645 158.09460449 C101.61856721 158.08934917 90.02803326 158.07538813 78.4375 158.0625 C52.553125 158.041875 26.66875 158.02125 0 158 C0 105.86 0 53.72 0 0 Z M50 38 C50 65.06 50 92.12 50 120 C77.62763502 122.09493187 77.62763502 122.09493187 102.8125 113.375 C105.22582525 111.29296794 105.22582525 111.29296794 105 109 C105.66 109 106.32 109 107 109 C109.97627883 102.5375619 110.04757724 95.47009961 108 88.6875 C104.36494423 83.80289381 100.48084849 79.66451299 94.5 78.0625 C93.675 78.041875 92.85 78.02125 92 78 C93 75 93 75 95.875 72.875 C99.85391525 69.6726923 101.15308577 65.95243176 102 61 C102.31169246 55.35175477 101.13976724 50.99328665 97.5859375 46.56640625 C84.63627053 33.77621794 67.66998086 38 50 38 Z " fill="#050505" transform="translate(171,171)"/>
<path d="M0 0 C3.3 0 6.6 0 10 0 C10.33 0.33 10.66 0.66 11 1 C12.88526056 1.1087807 14.77461679 1.14689145 16.66297913 1.15821838 C17.89025002 1.16799241 19.11752092 1.17776644 20.38198185 1.18783665 C21.75994391 1.19375178 23.13790636 1.19957689 24.51586914 1.20532227 C25.97779086 1.21503141 27.43970973 1.22517653 28.90162563 1.23572445 C32.82981296 1.2628548 36.75801155 1.28398859 40.68624115 1.30391693 C44.36730863 1.32348938 48.04833201 1.34842079 51.72937012 1.3729248 C62.50704701 1.44152539 73.28477752 1.50148004 84.0625 1.5625 C108.131875 1.706875 132.20125 1.85125 157 2 C157 54.14 157 106.28 157 160 C105.19 160 53.38 160 0 160 C0 107.2 0 54.4 0 0 Z M49 40 C49 67.06 49 94.12 49 122 C77.44002742 124.38561249 77.44002742 124.38561249 103 114 C107.38546583 109.40459166 108.36983406 105.17318301 108.5625 98.875 C108.34257494 93.45211093 107.97125182 89.97125182 104 86 C99.91015453 82.39539043 96.57908013 80.40822538 91 80 C91 79.01 91 78.02 91 77 C91.5775 76.773125 92.155 76.54625 92.75 76.3125 C96.14222063 74.33370463 98.25493471 71.49013058 100 68 C100.82813474 57.95394394 100.82813474 57.95394394 97 49 C91.70925508 43.70925508 86.15967713 41.78991928 79 40 C69.1 40 59.2 40 49 40 Z " fill="#010101" transform="translate(0,169)"/>
<path d="M0 0 C1.08990234 -0.02900391 2.17980469 -0.05800781 3.30273438 -0.08789062 C11.07770825 -0.14940898 14.51543895 0.76857635 20.1875 6.0625 C21.89107331 9.46964662 21.91474867 12.63524045 21.3125 16.3125 C19.91580828 19.67725733 18.6918388 21.52979169 15.48828125 23.34765625 C7.01088777 26.52852815 -2.78054377 25.77612535 -11.6875 25.3125 C-13.37266954 23.62733046 -12.81758019 21.52482212 -12.8203125 19.21875 C-12.82224609 17.67380859 -12.82224609 17.67380859 -12.82421875 16.09765625 C-12.82035156 15.01355469 -12.81648437 13.92945313 -12.8125 12.8125 C-12.81636719 11.72839844 -12.82023438 10.64429688 -12.82421875 9.52734375 C-12.82292969 8.49738281 -12.82164062 7.46742188 -12.8203125 6.40625 C-12.81918457 5.45427734 -12.81805664 4.50230469 -12.81689453 3.52148438 C-12.49087519 -2.04421948 -4.23715834 0.03693049 0 0 Z " fill="#171616" transform="translate(245.6875,254.6875)"/>
<path d="M0 0 C3.63 -0.103125 7.26 -0.20625 11 -0.3125 C12.69189453 -0.38078003 12.69189453 -0.38078003 14.41796875 -0.45043945 C21.04360883 -0.54096962 26.09380576 0.25498682 31 5 C33.27202487 8.7297523 33.38200019 11.64519789 33 16 C31.96228411 18.97478555 30.91309921 20.4402011 28.21875 22.09204102 C21.99623624 25.08423032 16.7676148 25.49519195 9.9375 25.25 C6.658125 25.1675 3.37875 25.085 0 25 C0 16.75 0 8.5 0 0 Z " fill="#0F0E0E" transform="translate(62,255)"/>
<path d="M0 0 C5.63619914 0.00331853 10.08698413 0.09426227 14.875 3.25 C17.38919926 6.16971527 17.83840947 7.90848838 18.25 11.75 C17.75787684 16.34314952 16.35203719 18.71825773 13.1875 22 C7.41012481 25.12290551 -0.69432152 24.67620481 -7.125 24.25 C-8.77894117 22.59605883 -8.25499683 20.64684587 -8.2578125 18.375 C-8.25910156 17.39015625 -8.26039063 16.4053125 -8.26171875 15.390625 C-8.25785156 14.35421875 -8.25398437 13.3178125 -8.25 12.25 C-8.25580078 10.69539062 -8.25580078 10.69539062 -8.26171875 9.109375 C-8.26042969 8.12453125 -8.25914062 7.1396875 -8.2578125 6.125 C-8.25668457 5.21492187 -8.25555664 4.30484375 -8.25439453 3.3671875 C-7.96702769 -1.33478464 -3.86489761 0.0453804 0 0 Z " fill="#1A1819" transform="translate(241.125,219.75)"/>
<path d="M0 0 C16.49858357 -0.58923513 16.49858357 -0.58923513 23 4 C25.36272549 7.80704938 25.71468233 11.61603398 25 16 C22.84256752 19.54435336 20.88152262 21.58853723 17 23 C14.07751942 23.23919334 11.17963991 23.18767499 8.25 23.125 C4.16625 23.063125 4.16625 23.063125 0 23 C0 15.41 0 7.82 0 0 Z " fill="#110F10" transform="translate(62,220)"/>
<path d="M0 0 C1.64574566 -0.02688151 3.29161413 -0.04634123 4.9375 -0.0625 C5.85402344 -0.07410156 6.77054687 -0.08570313 7.71484375 -0.09765625 C10 0 10 0 11 1 C12.88526056 1.1087807 14.77461679 1.14689145 16.66297913 1.15821838 C17.89025002 1.16799241 19.11752092 1.17776644 20.38198185 1.18783665 C21.75994391 1.19375178 23.13790636 1.19957689 24.51586914 1.20532227 C25.97779086 1.21503141 27.43970973 1.22517653 28.90162563 1.23572445 C32.82981296 1.2628548 36.75801155 1.28398859 40.68624115 1.30391693 C44.36730863 1.32348938 48.04833201 1.34842079 51.72937012 1.3729248 C62.50704701 1.44152539 73.28477752 1.50148004 84.0625 1.5625 C108.131875 1.706875 132.20125 1.85125 157 2 C157 54.14 157 106.28 157 160 C105.19 160 53.38 160 0 160 C0 159.67 0 159.34 0 159 C51.48 159 102.96 159 156 159 C156 107.52 156 56.04 156 3 C104.52 3 53.04 3 0 3 C0 2.01 0 1.02 0 0 Z " fill="#807F7F" transform="translate(0,169)"/>
<path d="M0 0 C1.64574566 -0.02688151 3.29161413 -0.04634123 4.9375 -0.0625 C5.85402344 -0.07410156 6.77054687 -0.08570313 7.71484375 -0.09765625 C10 0 10 0 11 1 C13.95529504 1.16029688 16.88982457 1.25957328 19.84765625 1.31640625 C21.17729652 1.3475779 21.17729652 1.3475779 22.53379822 1.37937927 C25.376617 1.444974 28.21953117 1.50380552 31.0625 1.5625 C32.98503606 1.6056758 34.90756234 1.64928978 36.83007812 1.69335938 C41.55328668 1.80066543 46.27659153 1.90190451 51 2 C51 2.33 51 2.66 51 3 C34.17 3 17.34 3 0 3 C0 2.01 0 1.02 0 0 Z " fill="#535051" transform="translate(0,169)"/>
<path d="M0 0 C0.66 0.33 1.32 0.66 2 1 C1.01 1.33 0.02 1.66 -1 2 C-1 2.66 -1 3.32 -1 4 C-1.66 4 -2.32 4 -3 4 C-3.33 4.66 -3.66 5.32 -4 6 C-7.46153846 9 -7.46153846 9 -11 9 C-11.66 10.32 -12.32 11.64 -13 13 C-13 10 -13 10 -12 8 C-11.34 8 -10.68 8 -10 8 C-10 7.34 -10 6.68 -10 6 C-8.57421875 4.74609375 -8.57421875 4.74609375 -6.6875 3.4375 C-5.76517578 2.78587891 -5.76517578 2.78587891 -4.82421875 2.12109375 C-3 1 -3 1 0 0 Z " fill="#565051" transform="translate(413,222)"/>
<path d="M0 0 C0.99 0.66 1.98 1.32 3 2 C2.690625 3.11375 2.38125 4.2275 2.0625 5.375 C0.84199336 10.20509012 0.38600363 15.04290069 0 20 C-0.33 20 -0.66 20 -1 20 C-1.19441368 17.7089095 -1.38033135 15.41709663 -1.5625 13.125 C-1.66691406 11.84882813 -1.77132813 10.57265625 -1.87890625 9.2578125 C-2 6 -2 6 -1 4 C-0.34 4 0.32 4 1 4 C0.67 2.68 0.34 1.36 0 0 Z " fill="#5D5759" transform="translate(381,233)"/>
<path d="M0 0 C3.3 0 6.6 0 10 0 C10.33 0.66 10.66 1.32 11 2 C8.59454362 3.20272819 7.05003047 3.10071472 4.375 3.0625 C3.14910156 3.04896484 3.14910156 3.04896484 1.8984375 3.03515625 C0.95871094 3.01775391 0.95871094 3.01775391 0 3 C0 2.01 0 1.02 0 0 Z " fill="#CED2CF" transform="translate(0,169)"/>
<path d="M0 0 C0 3.11227195 -0.45627049 5.94152152 -1 9 C-2.65 8.67 -4.3 8.34 -6 8 C-6 5 -6 5 -4.6875 3.61328125 C-3.125 2.40885417 -1.5625 1.20442708 0 0 Z " fill="#564D54" transform="translate(97,241)"/>
<path d="M0 0 C2.54532213 1.33964322 4.57078153 2.42770871 6.3125 4.75 C7.26539512 7.86856585 7.12452507 10.76234825 7 14 C6.67 14 6.34 14 6 14 C5.87882812 13.43410156 5.75765625 12.86820312 5.6328125 12.28515625 C5.46523437 11.55167969 5.29765625 10.81820313 5.125 10.0625 C4.88136719 8.96615234 4.88136719 8.96615234 4.6328125 7.84765625 C4.17038477 5.79299706 4.17038477 5.79299706 2 5 C2 4.01 2 3.02 2 2 C1.34 2 0.68 2 0 2 C0 1.34 0 0.68 0 0 Z " fill="#8A8889" transform="translate(88,257)"/>
<path d="M0 0 C2.475 0.495 2.475 0.495 5 1 C5 1.66 5 2.32 5 3 C6.32 3.66 7.64 4.32 9 5 C8.34 6.32 7.68 7.64 7 9 C6.5875 8.2575 6.175 7.515 5.75 6.75 C4.06254382 4.09828315 2.29127911 2.13325986 0 0 Z " fill="#656163" transform="translate(263,213)"/>
<path d="M0 0 C0.33 0 0.66 0 1 0 C1 3.3 1 6.6 1 10 C1.66 10.33 2.32 10.66 3 11 C1.625 12.5 1.625 12.5 0 14 C-0.66 14 -1.32 14 -2 14 C-1.34 9.38 -0.68 4.76 0 0 Z " fill="#7F7E7E" transform="translate(108,265)"/>
<path d="M0 0 C0.33 1.32 0.66 2.64 1 4 C-3.43076923 6.09230769 -3.43076923 6.09230769 -6.3125 5.625 C-6.869375 5.41875 -7.42625 5.2125 -8 5 C-6.20963542 3.99088542 -4.41927083 2.98177083 -2.62890625 1.97265625 C-1.02121854 1.1027487 -1.02121854 1.1027487 0 0 Z " fill="#4A4547" transform="translate(275,282)"/>
<path d="M0 0 C1.60031344 3.20062687 0.03173691 5.72271806 -1 9 C-2.32 8.34 -3.64 7.68 -5 7 C-4.54625 6.5875 -4.0925 6.175 -3.625 5.75 C-1.94049626 3.93591905 -1.00734029 2.24714373 0 0 Z " fill="#504E4F" transform="translate(271,237)"/>
</svg>
