<?xml version="1.0" encoding="UTF-8"?>
<svg version="1.1" xmlns="http://www.w3.org/2000/svg" width="644" height="266">
<path d="M0 0 C0.69224167 0.00561951 1.38448334 0.01123901 2.09770203 0.01702881 C2.82836884 0.01513046 3.55903564 0.01323212 4.31184387 0.01127625 C6.74569722 0.00755249 9.17925561 0.01831787 11.61308289 0.02947998 C13.32153285 0.0306739 15.02998348 0.03112449 16.73843384 0.03086853 C20.34081576 0.03243754 23.94309892 0.0407416 27.54545593 0.05413818 C32.08611759 0.07083767 36.6266689 0.07485977 41.16735744 0.07433796 C56.96555356 0.07471653 72.76500933 0.08852842 88.55448914 0.66619873 C89.5199617 0.69893387 90.48543427 0.73166901 91.48016357 0.76539612 C106.8008968 1.43419375 121.76586652 6.34822862 133.04667664 17.05682373 C143.89765873 29.19958941 145.83112156 43.59245 145.01542664 59.25994873 C143.59886574 68.95494349 138.1951355 76.97056849 130.64042664 83.07244873 C126.32259602 86.20863551 121.75955597 88.82619917 117.01542664 91.25994873 C117.76566101 91.58865967 118.51589539 91.91737061 119.28886414 92.25604248 C132.60673425 98.44532973 142.40355931 107.58569867 148.01542664 121.25994873 C153.02547305 136.58830501 152.32780865 152.30708921 145.76542664 167.07244873 C137.61654347 181.88859995 124.69338801 188.90830858 109.27714539 194.18182373 C95.89343977 197.87784822 82.21609009 197.54107548 68.46464539 197.49041748 C66.31228666 197.48922318 64.1599274 197.48877305 62.00756836 197.48902893 C57.52878999 197.48747506 53.05009281 197.479263 48.57133484 197.46575928 C42.81882687 197.44863689 37.06640664 197.44494931 31.31387615 197.44570446 C26.8848486 197.44543349 22.45584038 197.43996619 18.02681923 197.43270302 C15.90363015 197.42951505 13.78043889 197.42754865 11.65724754 197.42680931 C8.70848666 197.42465466 5.75982144 197.41593352 2.81108093 197.4052124 C1.48893333 197.40589218 1.48893333 197.40589218 0.14007568 197.40658569 C-5.87008584 197.37443625 -5.87008584 197.37443625 -6.98457336 196.25994873 C-7.08673528 193.7604073 -7.12344462 191.28834557 -7.11828613 188.78816223 C-7.12055169 187.99650978 -7.12281725 187.20485733 -7.12515146 186.38921541 C-7.1315207 183.71598505 -7.13066023 181.04280501 -7.12983704 178.36956787 C-7.1328267 176.46135899 -7.13622878 174.55315071 -7.14001465 172.64494324 C-7.14887832 167.44668362 -7.15119375 162.24844044 -7.15183043 157.050174 C-7.15277753 152.71838341 -7.15645349 148.3865967 -7.16000253 144.0548076 C-7.16815604 133.83941321 -7.17058594 123.62402764 -7.1698761 113.40863037 C-7.16927502 102.85279209 -7.17983077 92.29700488 -7.19561976 81.74117953 C-7.20867243 72.69406679 -7.21406096 63.64697078 -7.21342069 54.59984869 C-7.21316504 49.18949844 -7.21605309 43.77919353 -7.22659874 38.36885262 C-7.23624162 33.28245666 -7.23638525 28.19614974 -7.22908211 23.10975075 C-7.22803151 21.23840964 -7.23042708 19.36706309 -7.23644257 17.49573135 C-7.24409871 14.94995395 -7.23956045 12.40448899 -7.23181152 9.85871887 C-7.23695509 9.11038271 -7.24209865 8.36204654 -7.24739808 7.59103352 C-7.20621698 1.50946266 -6.16556322 0.04096279 0 0 Z M34.01542664 34.25994873 C33.99015539 40.50790548 33.9725932 46.75584915 33.960495 53.00384521 C33.95545365 55.13112887 33.94862072 57.25840904 33.93998718 59.38568115 C33.92791285 62.43622699 33.92219649 65.48672718 33.91777039 68.53729248 C33.9126091 69.49457748 33.90744781 70.45186249 33.90213013 71.43815613 C33.9020546 72.31899368 33.90197906 73.19983124 33.90190125 74.10736084 C33.89968063 74.8867955 33.89746002 75.66623016 33.89517212 76.46928406 C33.81971277 78.28361408 33.81971277 78.28361408 35.01542664 79.25994873 C36.40493349 79.36320816 37.79959494 79.39844501 39.19291687 79.4052124 C40.52582008 79.41478218 40.52582008 79.41478218 41.88565063 79.42454529 C42.85531265 79.42565811 43.82497467 79.42677094 44.82402039 79.42791748 C45.81990677 79.43124588 46.81579315 79.43457428 47.84185791 79.43800354 C49.9595239 79.44308098 52.07719793 79.44541162 54.19487 79.44525146 C57.40798066 79.44741842 60.62073708 79.46551085 63.83378601 79.48455811 C65.89302963 79.48749591 67.95227488 79.48947811 70.01152039 79.49041748 C70.96296432 79.497603 71.91440826 79.50478851 72.89468384 79.51219177 C82.21677923 79.48091421 90.1250128 78.40587079 98.01542664 73.25994873 C98.01542664 72.59994873 98.01542664 71.93994873 98.01542664 71.25994873 C98.67542664 71.25994873 99.33542664 71.25994873 100.01542664 71.25994873 C104.10985757 66.46011023 104.72798698 62.58756896 104.64042664 56.38494873 C104.63204773 55.58427979 104.62366882 54.78361084 104.61503601 53.9586792 C104.40772251 48.569631 103.7272196 44.69130767 99.87089539 40.67010498 C94.38797547 36.50308585 88.71982898 34.13000953 81.80961609 34.14642334 C80.74874283 34.14649887 79.68786957 34.1465744 78.59484863 34.14665222 C76.87910896 34.15439415 76.87910896 34.15439415 75.12870789 34.16229248 C73.37048958 34.1644149 73.37048958 34.1644149 71.57675171 34.1665802 C67.82711756 34.17218485 64.07754278 34.18473817 60.32792664 34.19744873 C57.78821396 34.20246313 55.24850034 34.20702614 52.70878601 34.21112061 C46.47764591 34.22215579 40.24654051 34.23889848 34.01542664 34.25994873 Z M34.01542664 110.25994873 C33.91688241 111.85058183 33.8874397 113.44556351 33.8860321 115.03924561 C33.88287994 116.05700073 33.87972778 117.07475586 33.8764801 118.12335205 C33.87850433 119.23061646 33.88052856 120.33788086 33.88261414 121.47869873 C33.88165741 122.6069104 33.88070068 123.73512207 33.87971497 124.89752197 C33.87903296 127.28835099 33.88088867 129.67918184 33.88505554 132.07000732 C33.89040348 135.74404024 33.88511121 139.4179509 33.87870789 143.09197998 C33.87936866 145.4083865 33.88064982 147.72479295 33.88261414 150.04119873 C33.8805899 151.14846313 33.87856567 152.25572754 33.8764801 153.39654541 C33.87963226 154.41430054 33.88278442 155.43205566 33.8860321 156.48065186 C33.8868277 157.38142456 33.88762329 158.28219727 33.88844299 159.21026611 C33.78798058 161.25317942 33.78798058 161.25317942 35.01542664 162.25994873 C36.64978065 162.37432256 38.28903313 162.41955184 39.92729187 162.43695068 C40.97606003 162.44978592 42.02482819 162.46262115 43.1053772 162.47584534 C44.25002945 162.48323227 45.3946817 162.4906192 46.57402039 162.49822998 C47.74747513 162.50630173 48.92092987 162.51437347 50.12994385 162.52268982 C52.62422701 162.53655735 55.11852937 162.54726748 57.61283875 162.55511475 C61.40561321 162.57223516 65.19749523 162.61608769 68.99003601 162.66033936 C71.41385772 162.67047399 73.83768686 162.67898767 76.26152039 162.68572998 C77.95117165 162.71199211 77.95117165 162.71199211 79.67495728 162.73878479 C87.77428507 162.71678655 94.88197881 161.45917014 101.41777039 156.40057373 C107.24348348 149.22590416 109.59775965 143.3309025 109.30058289 134.00213623 C108.67796928 128.01481087 106.95036519 122.20761033 102.79667664 117.67401123 C93.32330808 110.15348619 83.56887272 109.10401279 71.96464539 109.12713623 C70.91009659 109.1261795 69.85554779 109.12522278 68.76904297 109.12423706 C66.54933105 109.12355855 64.32961712 109.12538981 62.10990906 109.12957764 C58.69751089 109.13495727 55.28524275 109.12960783 51.87284851 109.12322998 C49.71594718 109.1238903 47.55904592 109.12517049 45.40214539 109.12713623 C44.37618759 109.125112 43.3502298 109.12308777 42.29318237 109.1210022 C41.35162796 109.12415436 40.41007355 109.12730652 39.43998718 109.1305542 C38.19139168 109.13174759 38.19139168 109.13174759 36.91757202 109.13296509 C35.0049168 109.05097987 35.0049168 109.05097987 34.01542664 110.25994873 Z " fill="#020102" transform="translate(55.98457336425781,21.74005126953125)"/>
<path d="M0 0 C0.75414688 0.00202423 1.50829376 0.00404846 2.28529358 0.00613403 C3.4413485 0.00469894 3.4413485 0.00469894 4.62075806 0.00323486 C6.25413596 0.00255305 7.88751655 0.00440745 9.52088928 0.00857544 C12.02510155 0.01391646 14.52913386 0.00863429 17.03334045 0.00222778 C18.61732523 0.00288871 20.20130989 0.00417017 21.78529358 0.00613403 C22.53741623 0.0041098 23.28953888 0.00208557 24.06445312 0 C29.37178734 0.02399029 29.37178734 0.02399029 31.60169983 1.13894653 C31.61383011 2.81905067 31.61383011 2.81905067 31.62620544 4.53309631 C31.70383753 15.11130014 31.79161948 25.68937804 31.88922691 36.26741695 C31.93907938 41.70511788 31.98541019 47.14280041 32.02357483 52.58059692 C32.06056745 57.83265888 32.10696485 63.08456272 32.15976334 68.33648872 C32.1782332 70.33581316 32.19336821 72.33517139 32.20504379 74.33454704 C32.22203357 77.14442866 32.2510983 79.95395398 32.28285217 82.76370239 C32.28501236 83.58226212 32.28717255 84.40082184 32.28939819 85.2441864 C32.40394747 93.22791453 33.23225984 100.89878655 38.60169983 107.13894653 C45.21493459 111.94857181 51.62899094 112.81134367 59.60169983 112.13894653 C68.20792689 110.07830062 73.6505269 105.67939155 78.30482483 98.26004028 C82.3303873 88.57201493 81.85121903 78.14530594 81.75202942 67.85098076 C81.7262319 65.1485213 81.71340583 62.44626065 81.70375061 59.74369812 C81.68105743 54.02119033 81.64248418 48.29885014 81.60169983 42.57644653 C81.55447755 35.91074417 81.51378549 29.24513172 81.48982239 22.57930183 C81.47684382 19.91460431 81.451847 17.25019006 81.42640686 14.58558655 C81.41914689 12.96332039 81.4124428 11.34105162 81.40638733 9.71878052 C81.39605469 8.976492 81.38572205 8.23420349 81.37507629 7.46942139 C81.37470582 5.69099139 81.47886815 3.91312966 81.60169983 2.13894653 C84.15603734 -0.41539098 85.80903866 -0.0983614 89.29141235 -0.11329651 C90.06540878 -0.10611099 90.83940521 -0.09892548 91.63685608 -0.09152222 C92.82764015 -0.09083488 92.82764015 -0.09083488 94.04248047 -0.09013367 C95.721171 -0.08711112 97.39985872 -0.07922472 99.07850647 -0.06686401 C101.65730141 -0.04860232 104.2357376 -0.04635434 106.81459045 -0.04660034 C108.44284879 -0.04168543 110.07110467 -0.03585722 111.69935608 -0.02902222 C112.86338707 -0.02735298 112.86338707 -0.02735298 114.05093384 -0.02565002 C119.48564976 0.02289646 119.48564976 0.02289646 120.60169983 1.13894653 C120.70029678 2.94624299 120.72802106 4.75742952 120.72868347 6.56741333 C120.73291321 8.33427994 120.73291321 8.33427994 120.73722839 10.13684082 C120.73419205 12.09274643 120.73419205 12.09274643 120.73109436 14.08816528 C120.73244838 15.46598354 120.73422832 16.84380144 120.73640442 18.22161865 C120.74097867 21.97358201 120.73918923 25.72551799 120.73602533 29.47748184 C120.73350169 33.39548061 120.73583928 37.31347697 120.7374115 41.23147583 C120.73923318 47.81229068 120.73682692 54.39309432 120.73207092 60.97390747 C120.7266283 68.59300096 120.72839096 76.2120677 120.73389733 83.83116055 C120.73842849 90.36108092 120.73907899 96.89099321 120.73645866 103.42091465 C120.7348959 107.32606508 120.73470208 111.23120291 120.73799515 115.13635254 C120.74087391 118.80689121 120.73889808 122.47739523 120.73310089 126.14793015 C120.73113769 128.14563702 120.73412716 130.14334681 120.73722839 132.14105225 C120.73440857 133.31896332 120.73158875 134.49687439 120.72868347 135.71047974 C120.72811793 137.25576103 120.72811793 137.25576103 120.72754097 138.83226013 C120.60169983 141.13894653 120.60169983 141.13894653 119.60169983 142.13894653 C117.00810661 142.22746182 114.44130292 142.25420598 111.84779358 142.23660278 C111.07234695 142.23518784 110.29690033 142.23377289 109.49795532 142.23231506 C107.01166489 142.22669999 104.52546323 142.214145 102.03919983 142.20144653 C100.3575605 142.19643347 98.67591977 142.19187023 96.99427795 142.18777466 C92.86338417 142.17672566 88.73255707 142.15945098 84.60169983 142.13894653 C82.61880412 137.40126664 82.42883292 134.23852037 82.60169983 129.13894653 C81.94169983 129.13894653 81.28169983 129.13894653 80.60169983 129.13894653 C79.96232483 129.98457153 79.32294983 130.83019653 78.66419983 131.70144653 C72.13723493 139.82645889 61.71783758 144.32997645 51.60169983 145.82644653 C50.26992501 145.94893854 48.93633745 146.05309265 47.60169983 146.13894653 C46.62523499 146.21822388 46.62523499 146.21822388 45.62904358 146.29910278 C31.59254445 146.90254106 17.24461917 142.62463896 6.78919983 133.13894653 C-3.55903514 121.98166774 -6.73106256 108.36264892 -6.64122009 93.56448364 C-6.64406761 92.05777603 -6.64406761 92.05777603 -6.64697266 90.52062988 C-6.65064596 87.23576794 -6.64003104 83.95113219 -6.62876892 80.66629028 C-6.62757573 78.37369309 -6.62712425 76.08109541 -6.62738037 73.78849792 C-6.62582182 69.00334579 -6.61757574 64.21826915 -6.60411072 59.43313599 C-6.58703512 53.28592137 -6.58329917 47.13878887 -6.5840559 40.99155331 C-6.58378482 36.26742259 -6.57831504 31.54330998 -6.57105446 26.81918526 C-6.56786448 24.55085957 -6.56589962 22.28253183 -6.56516075 20.01420403 C-6.56300556 16.85905278 -6.55428181 13.70399086 -6.54356384 10.54885864 C-6.54401703 9.6050383 -6.54447021 8.66121796 -6.54493713 7.688797 C-6.50666708 0.02954508 -6.50666708 0.02954508 0 0 Z " fill="#020102" transform="translate(325.39830017089844,76.86105346679688)"/>
<path d="M0 0 C1 1 1 1 1.11352539 4.96899414 C1.1133662 6.74105607 1.10766785 8.5131226 1.09765625 10.28515625 C1.0962413 11.21597519 1.09482635 12.14679413 1.09336853 13.1058197 C1.08775172 16.09141191 1.0751964 19.07693029 1.0625 22.0625 C1.05748716 24.08137913 1.05292388 26.10025943 1.04882812 28.11914062 C1.03777683 33.07945572 1.02050095 38.03971532 1 43 C1.65597168 42.98952637 2.31194336 42.97905273 2.98779297 42.96826172 C5.95015658 42.92677497 8.91245916 42.90069738 11.875 42.875 C12.90753906 42.85824219 13.94007813 42.84148437 15.00390625 42.82421875 C16.48310547 42.81455078 16.48310547 42.81455078 17.9921875 42.8046875 C19.35899658 42.78897705 19.35899658 42.78897705 20.75341797 42.77294922 C23 43 23 43 25 45 C25.25878906 47.10717773 25.25878906 47.10717773 25.265625 49.68359375 C25.26949219 51.07481445 25.26949219 51.07481445 25.2734375 52.49414062 C25.26570312 53.46544922 25.25796875 54.43675781 25.25 55.4375 C25.26160156 56.88866211 25.26160156 56.88866211 25.2734375 58.36914062 C25.27085937 59.29791016 25.26828125 60.22667969 25.265625 61.18359375 C25.26336914 62.03493896 25.26111328 62.88628418 25.25878906 63.76342773 C25 66 25 66 23 69 C20.75341797 69.43237305 20.75341797 69.43237305 17.9921875 69.51171875 C16.51298828 69.56489258 16.51298828 69.56489258 15.00390625 69.61914062 C13.97136719 69.64169922 12.93882812 69.66425781 11.875 69.6875 C10.83472656 69.72166016 9.79445313 69.75582031 8.72265625 69.79101562 C6.14854493 69.87367058 3.57478171 69.94276155 1 70 C0.88408537 88.48392579 0.94584449 106.96267762 1.31838989 125.44369507 C1.35601154 127.35023015 1.39043543 129.25683111 1.42160034 131.16348267 C1.46684247 133.85537476 1.52462814 136.54671297 1.5859375 139.23828125 C1.59749374 140.03689575 1.60904999 140.83551025 1.62095642 141.6583252 C1.7396834 146.13293287 2.32479301 149.78259293 4 154 C8.90389078 155.14043972 13.81718254 155.35087369 18.82421875 155.60546875 C23.89676339 155.89676339 23.89676339 155.89676339 25 157 C25.08758003 158.99964982 25.10696576 161.0023611 25.09765625 163.00390625 C25.09282227 164.82631836 25.09282227 164.82631836 25.08789062 166.68554688 C25.07532227 168.60463867 25.07532227 168.60463867 25.0625 170.5625 C25.05798828 171.84576172 25.05347656 173.12902344 25.04882812 174.45117188 C25.03699545 177.63416022 25.02051068 180.81705762 25 184 C20.77989192 186.11005404 15.27729077 185.22704104 10.63598633 185.24023438 C8.60128937 185.24981731 6.56765752 185.28077748 4.53320312 185.3125 C-7.79974964 185.36107884 -19.42923928 183.5986397 -29.0078125 175.25 C-38.07953704 165.8366624 -37.52213163 153.75182168 -37.6875 141.4375 C-37.72060401 139.71287766 -37.75439315 137.98826835 -37.78881836 136.26367188 C-38.19157964 114.17974146 -38.09072393 92.08639094 -38 70 C-39.28777344 69.93941406 -40.57554687 69.87882812 -41.90234375 69.81640625 C-43.58074159 69.73201753 -45.25912636 69.6473687 -46.9375 69.5625 C-47.78763672 69.52318359 -48.63777344 69.48386719 -49.51367188 69.44335938 C-50.32255859 69.40146484 -51.13144531 69.35957031 -51.96484375 69.31640625 C-52.7137085 69.27974854 -53.46257324 69.24309082 -54.23413086 69.20532227 C-56 69 -56 69 -57 68 C-57.09946453 66.23140807 -57.13080217 64.45888549 -57.1328125 62.6875 C-57.13410156 61.61242187 -57.13539063 60.53734375 -57.13671875 59.4296875 C-57.13091797 57.73199219 -57.13091797 57.73199219 -57.125 56 C-57.12886719 54.86820313 -57.13273437 53.73640625 -57.13671875 52.5703125 C-57.13542969 51.49523437 -57.13414062 50.42015625 -57.1328125 49.3125 C-57.13168457 48.31863281 -57.13055664 47.32476562 -57.12939453 46.30078125 C-57 44 -57 44 -56 43 C-54.65984779 42.84417697 -53.31241097 42.74955858 -51.96484375 42.68359375 C-51.15595703 42.64169922 -50.34707031 42.59980469 -49.51367188 42.55664062 C-48.66353516 42.51732422 -47.81339844 42.47800781 -46.9375 42.4375 C-46.08349609 42.39431641 -45.22949219 42.35113281 -44.34960938 42.30664062 C-42.23327963 42.20023298 -40.11666187 42.09958269 -38 42 C-38.00523682 40.7632251 -38.01047363 39.5264502 -38.01586914 38.25219727 C-38.03391561 33.68075275 -38.04543071 29.10931141 -38.05493164 24.5378418 C-38.05997267 22.55606559 -38.06680538 20.57429311 -38.07543945 18.5925293 C-38.08751515 15.75047891 -38.09323045 12.90847753 -38.09765625 10.06640625 C-38.10281754 9.17474258 -38.10797882 8.28307892 -38.11329651 7.36439514 C-38.11349177 5.24259399 -38.0621003 3.1208922 -38 1 C-36.02216467 -0.97783533 -32.27668034 -0.41400381 -29.5625 -0.5625 C-28.46869019 -0.6251001 -28.46869019 -0.6251001 -27.3527832 -0.68896484 C-18.20307462 -1.18551565 -9.09678669 -1.33727717 0 0 Z " fill="#010101" transform="translate(516,34)"/>
<path d="M0 0 C1.455261 2.910522 1.12985887 5.47556411 1.1328125 8.72265625 C1.13376923 9.38333603 1.13472595 10.04401581 1.13571167 10.72471619 C1.13639216 12.12092179 1.134547 13.51713056 1.13037109 14.91333008 C1.12501243 17.05752614 1.13032479 19.20151353 1.13671875 21.34570312 C1.13605811 22.7005213 1.13477725 24.05533934 1.1328125 25.41015625 C1.13168457 26.64902588 1.13055664 27.88789551 1.12939453 29.16430664 C1 32 1 32 0 33 C-2.12329115 33.13457479 -4.24897971 33.23179424 -6.375 33.3125 C-16.68804262 34.00422847 -25.39057481 36.80530652 -33 44 C-39.39726733 51.78046027 -41.13635956 61.69079842 -41.17358398 71.51245117 C-41.180271 72.25124008 -41.18695801 72.99002899 -41.19384766 73.75120544 C-41.20784906 75.34825717 -41.21975853 76.94532833 -41.22979546 78.5424099 C-41.24625692 81.06800375 -41.26949263 83.59345189 -41.29469299 86.11897278 C-41.36535653 93.29693318 -41.42576704 100.47494969 -41.47680664 107.65307617 C-41.50853321 112.04852413 -41.54977995 116.44379812 -41.59700203 120.83910561 C-41.61304578 122.51486411 -41.62535634 124.19066258 -41.63390923 125.86647606 C-41.64601517 128.20307579 -41.67014026 130.53926281 -41.69702148 132.87573242 C-41.69761063 133.57134277 -41.69819977 134.26695312 -41.69880676 134.98364258 C-41.7720914 139.7720914 -41.7720914 139.7720914 -44 142 C-46.71310649 142.1874551 -49.32229085 142.25565406 -52.03515625 142.23046875 C-53.22594032 142.22978142 -53.22594032 142.22978142 -54.44078064 142.2290802 C-56.11947117 142.22605765 -57.7981589 142.21817125 -59.47680664 142.20581055 C-62.05560158 142.18754885 -64.63403777 142.18530087 -67.21289062 142.18554688 C-68.84114896 142.18063196 -70.46940484 142.17480376 -72.09765625 142.16796875 C-73.26168724 142.16629951 -73.26168724 142.16629951 -74.44923401 142.16459656 C-79.88394993 142.11605007 -79.88394993 142.11605007 -81 141 C-81.09859695 139.19270354 -81.12632123 137.38151702 -81.12698364 135.5715332 C-81.13121338 133.8046666 -81.13121338 133.8046666 -81.13552856 132.00210571 C-81.13350433 130.69816864 -81.1314801 129.39423157 -81.12939453 128.05078125 C-81.13074855 126.67296299 -81.13252849 125.29514509 -81.13470459 123.91732788 C-81.13927884 120.16536453 -81.1374894 116.41342855 -81.1343255 112.66146469 C-81.13180186 108.74346592 -81.13413945 104.82546956 -81.13571167 100.9074707 C-81.13753335 94.32665585 -81.13512709 87.74585221 -81.13037109 81.16503906 C-81.12492847 73.54594557 -81.12669113 65.92687883 -81.1321975 58.30778599 C-81.13672867 51.77786562 -81.13737916 45.24795332 -81.13475883 38.71803188 C-81.13319607 34.81288146 -81.13300225 30.90774362 -81.13629532 27.00259399 C-81.13917409 23.33205532 -81.13719825 19.6615513 -81.13140106 15.99101639 C-81.12943786 13.99330951 -81.13242733 11.99559972 -81.13552856 9.99789429 C-81.13270874 8.81998322 -81.12988892 7.64207214 -81.12698364 6.4284668 C-81.12660662 5.39827927 -81.12622959 4.36809174 -81.12584114 3.3066864 C-81 1 -81 1 -80 0 C-77.41810554 -0.10091475 -74.863535 -0.13971499 -72.28125 -0.1328125 C-71.50817505 -0.13376923 -70.7351001 -0.13472595 -69.93859863 -0.13571167 C-68.30102456 -0.13639341 -66.66344781 -0.13453957 -65.02587891 -0.13037109 C-62.51068079 -0.12502271 -59.99566127 -0.13031626 -57.48046875 -0.13671875 C-55.89322877 -0.13605797 -54.3059889 -0.1347768 -52.71875 -0.1328125 C-51.5828241 -0.13584885 -51.5828241 -0.13584885 -50.4239502 -0.13894653 C-45.11495132 -0.11495132 -45.11495132 -0.11495132 -44 1 C-41.36923077 14.73846154 -41.36923077 14.73846154 -44 20 C-43.34 20 -42.68 20 -42 20 C-41.7421875 19.26652344 -41.484375 18.53304687 -41.21875 17.77734375 C-37.28682184 8.81708439 -28.84676575 2.68424339 -19.9375 -0.80859375 C-13.65050802 -2.64652487 -5.733492 -3.60245957 0 0 Z " fill="#010101" transform="translate(305,77)"/>
<path d="M0 0 C0.76313004 -0.0004985 1.52626007 -0.00099701 2.31251526 -0.00151062 C3.92557378 0.00082845 5.53863604 0.01054721 7.15161133 0.02709961 C9.61638169 0.05066152 12.08006773 0.04766342 14.54492188 0.04101562 C16.11328768 0.04659372 17.68164894 0.05370443 19.25 0.0625 C20.35328896 0.06113289 20.35328896 0.06113289 21.47886658 0.05973816 C25.20025567 0.11109217 28.02983858 0.30022873 31.19140625 2.36328125 C31.24076134 7.7384303 31.27710427 13.1134481 31.30126953 18.48876953 C31.31134109 20.31821998 31.32499901 22.14765428 31.34228516 23.97705078 C31.36648302 26.60323059 31.37787757 29.229198 31.38671875 31.85546875 C31.39704132 32.67634979 31.40736389 33.49723083 31.41799927 34.34298706 C31.41839809 36.35117267 31.31390165 38.35883507 31.19140625 40.36328125 C29.19140625 42.36328125 29.19140625 42.36328125 25.47607422 42.59033203 C23.87854573 42.59001476 22.28099598 42.57868107 20.68359375 42.55859375 C19.42266403 42.55434891 19.42266403 42.55434891 18.13626099 42.55001831 C15.44616579 42.53880555 12.75640115 42.51369928 10.06640625 42.48828125 C8.24479647 42.47825285 6.42318148 42.46912676 4.6015625 42.4609375 C0.13138267 42.43886267 -4.33854946 42.40432559 -8.80859375 42.36328125 C-10.8890627 38.09881167 -11.11536775 34.20148879 -11.109375 29.54296875 C-11.11366013 28.80249298 -11.11794525 28.06201721 -11.12236023 27.29910278 C-11.12808153 25.74091614 -11.12862007 24.18270279 -11.12426758 22.62451172 C-11.12109444 20.23879865 -11.14463758 17.85431115 -11.16992188 15.46875 C-11.17219377 13.95182448 -11.17289887 12.43489563 -11.171875 10.91796875 C-11.18108475 10.20542938 -11.19029449 9.49289001 -11.19978333 8.75875854 C-11.17417973 6.02797103 -11.06739234 3.85089491 -9.77392578 1.41381836 C-6.64698805 -0.25763668 -3.4572238 -0.04317016 0 0 Z " fill="#020102" transform="translate(568.80859375,176.63671875)"/>
<path d="M0 0 C0.02332815 18.10607616 0.04097876 36.21214843 0.05181217 54.31823635 C0.05697531 62.72461384 0.06401834 71.13098201 0.07543945 79.53735352 C0.08538575 86.86167932 0.0918533 94.18599837 0.09408849 101.51033074 C0.09539569 105.39090787 0.09848212 109.2714657 0.10573006 113.15203667 C0.11248942 116.80039557 0.11461713 120.44872711 0.11310768 124.09709167 C0.11351637 126.08288419 0.118912 128.0686737 0.12442017 130.05445862 C0.1230455 131.2254007 0.12167084 132.39634277 0.12025452 133.60276794 C0.12117631 134.62687995 0.1220981 135.65099195 0.12304783 136.70613766 C0 139 0 139 -1 140 C-3.59359322 140.08851529 -6.16039691 140.11525945 -8.75390625 140.09765625 C-9.52935287 140.0962413 -10.3047995 140.09482635 -11.10374451 140.09336853 C-13.59003494 140.08775345 -16.0762366 140.07519846 -18.5625 140.0625 C-20.24413933 140.05748694 -21.92578006 140.0529237 -23.60742188 140.04882812 C-27.73831566 140.03777913 -31.86914276 140.02050445 -36 140 C-36.33 138.35 -36.66 136.7 -37 135 C-36.21753906 135.50273437 -35.43507813 136.00546875 -34.62890625 136.5234375 C-29.82353007 138.47869282 -26.02810347 138.07187082 -20.9375 137.625 C-10.23999522 136.78353568 -10.23999522 136.78353568 -6 138 C-5.15172421 130.90052163 -4.85603121 123.91678808 -4.87060547 116.77050781 C-4.86885315 115.69603897 -4.86710083 114.62157013 -4.86529541 113.51454163 C-4.86092539 109.99405257 -4.86379688 106.47361449 -4.8671875 102.953125 C-4.86651327 100.49314362 -4.86554224 98.03316231 -4.86428833 95.57318115 C-4.8628181 90.43240725 -4.86494494 85.29165078 -4.86962891 80.15087891 C-4.87533782 73.56473027 -4.87203555 66.97862229 -4.86605644 60.39247513 C-4.86244287 55.3190073 -4.86359288 50.24554911 -4.86618423 45.17208099 C-4.86685067 42.74321233 -4.86603497 40.31434279 -4.86370468 37.88547516 C-4.86116382 34.49426451 -4.86503854 31.10311981 -4.87060547 27.71191406 C-4.86858124 26.71126419 -4.86655701 25.71061432 -4.86447144 24.67964172 C-4.8787083 19.99548415 -5.07759561 15.61219154 -6 11 C-6.0620775 9.37605252 -6.08712041 7.74994703 -6.0625 6.125 C-6.05347656 5.34382813 -6.04445313 4.56265625 -6.03515625 3.7578125 C-6.02355469 3.17773438 -6.01195312 2.59765625 -6 2 C-1.125 0 -1.125 0 0 0 Z " fill="#040305" transform="translate(446,79)"/>
<path d="M0 0 C0.75728394 0.00202423 1.51456787 0.00404846 2.2947998 0.00613403 C3.06787476 0.00517731 3.84094971 0.00422058 4.63745117 0.00323486 C6.27502524 0.00255313 7.91260199 0.00440697 9.5501709 0.00857544 C12.06536901 0.01392382 14.58038854 0.00863027 17.09558105 0.00222778 C18.68282103 0.00288857 20.2700609 0.00416973 21.8572998 0.00613403 C22.99322571 0.00309769 22.99322571 0.00309769 24.15209961 0 C29.46109849 0.02399522 29.46109849 0.02399522 30.5760498 1.13894653 C33.20681904 14.87740807 33.20681904 14.87740807 30.5760498 20.13894653 C31.2360498 20.13894653 31.8960498 20.13894653 32.5760498 20.13894653 C33.0710498 22.11894653 33.0710498 22.11894653 33.5760498 24.13894653 C32.2560498 24.46894653 30.9360498 24.79894653 29.5760498 25.13894653 C28.04338398 22.07361489 28.4732851 18.87140381 28.5135498 15.51394653 C28.51806152 14.80754028 28.52257324 14.10113403 28.52722168 13.37332153 C28.53901106 11.62849378 28.55694656 9.88370954 28.5760498 8.13894653 C27.5860498 8.13894653 26.5960498 8.13894653 25.5760498 8.13894653 C25.5760498 6.81894653 25.5760498 5.49894653 25.5760498 4.13894653 C21.28383749 4.24840996 16.9925349 4.37913548 12.7010498 4.51394653 C10.86606934 4.56035278 10.86606934 4.56035278 8.99401855 4.60769653 C7.82741699 4.64636841 6.66081543 4.68504028 5.4588623 4.72488403 C4.38007813 4.75630493 3.30129395 4.78772583 2.18981934 4.82009888 C-0.58156673 4.88570975 -0.58156673 4.88570975 -2.4239502 7.13894653 C-2.74140017 9.47867297 -2.74140017 9.47867297 -2.70915222 12.23641968 C-2.72176086 13.31592392 -2.73436951 14.39542816 -2.74736023 15.50764465 C-2.75109146 16.6972731 -2.75482269 17.88690155 -2.75866699 19.11257935 C-2.77031891 20.36144424 -2.78197083 21.61030914 -2.79397583 22.89701843 C-2.82386342 26.32904223 -2.84484209 29.7608994 -2.86159873 33.19299793 C-2.88093409 36.78438452 -2.91067088 40.37568603 -2.93904114 43.9670105 C-2.98514988 50.00296985 -3.02352687 56.03893979 -3.05700684 62.07498169 C-3.09573994 69.04707698 -3.1450033 76.01903365 -3.20033711 82.99101567 C-3.2534657 89.69933956 -3.30060871 96.40769104 -3.34452248 103.11608124 C-3.36321309 105.96920985 -3.38370977 108.82231699 -3.40561485 111.67542267 C-3.43580265 115.66616572 -3.45709566 119.65692955 -3.47741699 123.6477356 C-3.49212288 125.42003288 -3.49212288 125.42003288 -3.50712585 127.22813416 C-3.51334961 128.86430946 -3.51334961 128.86430946 -3.5196991 130.53353882 C-3.5253976 131.47670078 -3.5310961 132.41986275 -3.53696728 133.39160538 C-3.41428451 136.37391039 -2.97057434 139.20711812 -2.4239502 142.13894653 C-3.7439502 141.80894653 -5.0639502 141.47894653 -6.4239502 141.13894653 C-6.44727829 122.90248655 -6.46492893 104.66603042 -6.47576237 86.42955875 C-6.48092552 77.96264714 -6.48796857 69.49574478 -6.49938965 61.02883911 C-6.50933591 53.6517756 -6.51580348 46.27471878 -6.51803869 38.89764875 C-6.5193459 34.989126 -6.52243236 31.08062242 -6.52968025 27.17210579 C-6.53643956 23.49748211 -6.53856734 19.8228856 -6.53705788 16.1482563 C-6.53746657 14.14815043 -6.54286223 12.14804755 -6.54837036 10.14794922 C-6.5469957 8.96859299 -6.54562103 7.78923676 -6.54420471 6.57414246 C-6.5451265 5.54265611 -6.5460483 4.51116976 -6.54699802 3.44842625 C-6.31110406 -0.97905808 -3.8465329 0.01738527 0 0 Z " fill="#0D090E" transform="translate(230.4239501953125,76.86105346679688)"/>
<path d="M0 0 C0.75414688 0.00202423 1.50829376 0.00404846 2.28529358 0.00613403 C3.4413485 0.00469894 3.4413485 0.00469894 4.62075806 0.00323486 C6.25413596 0.00255305 7.88751655 0.00440745 9.52088928 0.00857544 C12.02510155 0.01391646 14.52913386 0.00863429 17.03334045 0.00222778 C18.61732523 0.00288871 20.20130989 0.00417017 21.78529358 0.00613403 C22.53741623 0.0041098 23.28953888 0.00208557 24.06445312 0 C29.37178734 0.02399029 29.37178734 0.02399029 31.60169983 1.13894653 C31.93169983 32.48894653 32.26169983 63.83894653 32.60169983 96.13894653 C29.59844496 93.13569166 30.29340259 89.7714204 30.28285217 85.74197388 C30.27280655 84.87361404 30.26276093 84.00525421 30.25241089 83.11058044 C30.22144841 80.23202189 30.20450761 77.35355688 30.18763733 74.47488403 C30.16893618 72.48233223 30.14936357 70.48978843 30.12895203 68.49725342 C30.07751355 63.24641631 30.03795066 57.99555349 30.00080872 52.74459839 C29.96084234 47.38900329 29.90971649 42.03351622 29.85951233 36.67800903 C29.7626144 26.16506396 29.67825416 15.65205805 29.60169983 5.13894653 C28.61169983 5.79894653 27.62169983 6.45894653 26.60169983 7.13894653 C26.10669983 5.65394653 26.10669983 5.65394653 25.60169983 4.13894653 C24.30232483 4.38644653 24.30232483 4.38644653 22.97669983 4.63894653 C18.00215242 5.37139523 13.01876217 5.16510454 8.00404358 5.07644653 C4.76095205 5.13602112 1.78053277 5.51963053 -1.39830017 6.13894653 C-1.39830017 8.11894653 -1.39830017 10.09894653 -1.39830017 12.13894653 C-1.72830017 12.13894653 -2.05830017 12.13894653 -2.39830017 12.13894653 C-2.72830017 10.15894653 -3.05830017 8.17894653 -3.39830017 6.13894653 C-3.72830017 6.13894653 -4.05830017 6.13894653 -4.39830017 6.13894653 C-4.42146699 18.17828304 -4.43923744 30.21761424 -4.45011234 42.2569685 C-4.45533165 47.84727452 -4.46241208 53.4375653 -4.47373962 59.02786255 C-4.48460225 64.42245445 -4.49058419 69.81703169 -4.49317741 75.21163368 C-4.49502556 77.27011661 -4.49863449 79.32859874 -4.50403023 81.38707542 C-4.51128539 84.26947136 -4.51228921 87.15180661 -4.51182556 90.03421021 C-4.51542084 90.88585251 -4.51901611 91.73749481 -4.52272034 92.61494446 C-4.51577056 96.6057972 -4.33269261 100.23568732 -3.39830017 104.13894653 C-3.33458649 105.74198281 -3.31185803 107.34732325 -3.33580017 108.95144653 C-3.34482361 109.74164185 -3.35384705 110.53183716 -3.36314392 111.34597778 C-3.37474548 111.93765747 -3.38634705 112.52933716 -3.39830017 113.13894653 C-3.72830017 113.13894653 -4.05830017 113.13894653 -4.39830017 113.13894653 C-6.09565102 106.50996581 -6.68250435 100.50444941 -6.64122009 93.67800903 C-6.64311844 92.67368332 -6.64501678 91.6693576 -6.64697266 90.63459778 C-6.65065127 87.34429907 -6.64002273 84.05422531 -6.62876892 80.76394653 C-6.62757596 78.4699201 -6.6271242 76.17589318 -6.62738037 73.88186646 C-6.62582086 69.09073805 -6.61756786 64.29968493 -6.60411072 59.50857544 C-6.58704475 53.35348508 -6.58329884 47.19847673 -6.5840559 41.04336548 C-6.5837848 36.31494355 -6.57831447 31.58653971 -6.57105446 26.85812378 C-6.5678641 24.58700701 -6.56589953 22.31588818 -6.56516075 20.04476929 C-6.56300541 16.8847194 -6.55428104 13.72475868 -6.54356384 10.56472778 C-6.54401703 9.6193364 -6.54447021 8.67394501 -6.54493713 7.6999054 C-6.50667635 0.02954512 -6.50667635 0.02954512 0 0 Z " fill="#141215" transform="translate(325.39830017089844,76.86105346679688)"/>
<path d="M0 0 C0.66 0.33 1.32 0.66 2 1 C2.05802698 4.43742918 2.09360486 7.87473253 2.125 11.3125 C2.15013672 12.77719727 2.15013672 12.77719727 2.17578125 14.27148438 C2.18222656 15.20927734 2.18867187 16.14707031 2.1953125 17.11328125 C2.20578613 17.97735596 2.21625977 18.84143066 2.22705078 19.73168945 C2 22 2 22 0 25 C-2.24658203 25.43237305 -2.24658203 25.43237305 -5.0078125 25.51171875 C-6.48701172 25.56489258 -6.48701172 25.56489258 -7.99609375 25.61914062 C-9.02863281 25.64169922 -10.06117188 25.66425781 -11.125 25.6875 C-12.68541016 25.73874023 -12.68541016 25.73874023 -14.27734375 25.79101562 C-16.85145507 25.87367058 -19.42521829 25.94276155 -22 26 C-22.17265257 53.01348613 -21.67596612 79.9955131 -21 107 C-22.97261047 105.926651 -22.97261047 105.926651 -25 104 C-25.47428894 100.95726013 -25.47428894 100.95726013 -25.43823242 97.17358398 C-25.43721024 96.48385498 -25.43618805 95.79412598 -25.43513489 95.08349609 C-25.42725065 92.80382618 -25.39126283 90.52548176 -25.35546875 88.24609375 C-25.34546767 86.66334597 -25.33738091 85.08058503 -25.33113098 83.49781799 C-25.31018794 79.33082924 -25.26610886 75.1644132 -25.21636963 70.99768066 C-25.14112144 64.32461374 -25.10313945 57.65120172 -25.06087685 50.9778614 C-25.04313806 48.6433753 -25.01701084 46.30910302 -24.98930359 43.97471619 C-24.97608788 42.54881886 -24.96296531 41.12292067 -24.94995117 39.69702148 C-24.93566574 38.44920395 -24.92138031 37.20138641 -24.90666199 35.91575623 C-24.79448495 33.06239073 -24.79448495 33.06239073 -26 31 C-25.505 29.515 -25.505 29.515 -25 28 C-24.96125079 26.33378384 -24.9549714 24.66605828 -25 23 C-24.01 23 -23.02 23 -22 23 C-21.67 22.34 -21.34 21.68 -21 21 C-14.73 21 -8.46 21 -2 21 C-1.71102097 14.83738196 -1.71102097 14.83738196 -1.43188477 8.67431641 C-1.39377686 7.90780762 -1.35566895 7.14129883 -1.31640625 6.3515625 C-1.27974854 5.56604004 -1.24309082 4.78051758 -1.20532227 3.97119141 C-1 2 -1 2 0 0 Z " fill="#0B090C" transform="translate(539,78)"/>
<path d="M0 0 C1.12174118 -0.00637985 2.24348236 -0.0127597 3.3992157 -0.01933289 C5.23344841 -0.02100212 5.23344841 -0.02100212 7.10473633 -0.02270508 C8.3542659 -0.02603348 9.60379547 -0.02936188 10.89118958 -0.03279114 C13.54354391 -0.03786727 16.1957959 -0.04063036 18.84814453 -0.04003906 C22.2364035 -0.03993784 25.62445101 -0.05354426 29.01266003 -0.07081127 C32.25167742 -0.08465797 35.49069336 -0.0840218 38.72973633 -0.08520508 C39.94243698 -0.09239059 41.15513763 -0.09957611 42.40458679 -0.10697937 C44.11083977 -0.10236443 44.11083977 -0.10236443 45.8515625 -0.09765625 C46.8478215 -0.09908127 47.84408051 -0.10050629 48.87052917 -0.10197449 C52.07556316 0.17328731 54.74531943 1.02101494 57.74926758 2.14526367 C57.41926758 3.13526367 57.08926758 4.12526367 56.74926758 5.14526367 C55.15211914 4.41859497 55.15211914 4.41859497 53.52270508 3.67724609 C47.8817128 1.57354362 42.33405498 1.66760745 36.37426758 1.63354492 C35.20919678 1.61559372 34.04412598 1.59764252 32.84375 1.57914734 C29.14562531 1.52523859 25.44762827 1.49121013 21.74926758 1.45776367 C19.23232281 1.42457355 16.71539484 1.39008233 14.19848633 1.35424805 C8.04873032 1.26708934 1.89954481 1.20685139 -4.25073242 1.14526367 C-3.92073242 15.66526367 -3.59073242 30.18526367 -3.25073242 45.14526367 C3.11745339 45.19137282 9.48505127 45.23113938 15.85327148 45.25512695 C18.01605196 45.26513534 20.17881907 45.27874618 22.34155273 45.29614258 C25.46447056 45.32061911 28.58720825 45.33179871 31.71020508 45.34057617 C32.66478607 45.35089874 33.61936707 45.36122131 34.60287476 45.37185669 C42.57836423 45.37316596 50.43983289 44.55633319 57.74926758 41.14526367 C57.74926758 41.80526367 57.74926758 42.46526367 57.74926758 43.14526367 C56.75926758 43.64026367 56.75926758 43.64026367 55.74926758 44.14526367 C56.40926758 44.80526367 57.06926758 45.46526367 57.74926758 46.14526367 C55.69693073 48.39306117 54.74259497 49.14748787 51.74926758 50.14526367 C51.08926758 49.48526367 50.42926758 48.82526367 49.74926758 48.14526367 C47.38353212 47.87337685 47.38353212 47.87337685 44.61279297 47.96582031 C43.5415065 47.97565445 42.47022003 47.98548859 41.36647034 47.99562073 C40.20501999 48.01535446 39.04356964 48.0350882 37.84692383 48.05541992 C35.4061706 48.07584078 32.96541531 48.09601549 30.5246582 48.1159668 C26.66202093 48.1595165 22.79952019 48.20793421 18.93701172 48.26171875 C15.21948684 48.30986892 11.5021463 48.33983011 7.78442383 48.36791992 C6.62499771 48.38967789 5.46557159 48.41143585 4.27101135 48.43385315 C3.19657272 48.44053513 2.12213409 48.4472171 1.01513672 48.45410156 C0.06852676 48.46679581 -0.87808319 48.47949005 -1.8533783 48.49256897 C-4.25073242 48.14526367 -4.25073242 48.14526367 -6.06330872 46.8986969 C-7.56477647 44.68152417 -7.58927532 43.4458307 -7.51538086 40.78149414 C-7.49836121 39.90403534 -7.48134155 39.02657654 -7.46380615 38.12252808 C-7.42958557 37.1787027 -7.39536499 36.23487732 -7.36010742 35.26245117 C-7.33603821 34.29244171 -7.31196899 33.32243225 -7.28717041 32.32302856 C-7.23351605 30.27350212 -7.17251526 28.2241568 -7.10473633 26.17504883 C-7.0009227 23.02603549 -6.91876653 19.87703874 -6.84057617 16.72729492 C-6.78584728 14.73897857 -6.72989956 12.75069532 -6.67260742 10.76245117 C-6.64648376 9.81457733 -6.62036011 8.86670349 -6.59344482 7.8901062 C-6.56381653 7.01895172 -6.53418823 6.14779724 -6.50366211 5.25024414 C-6.47906921 4.47985809 -6.45447632 3.70947205 -6.42913818 2.91574097 C-6.04318151 -0.91444655 -3.24590806 0.01246899 0 0 Z " fill="#1C1A1C" transform="translate(94.250732421875,54.854736328125)"/>
<path d="M0 0 C0.495 0.99 0.495 0.99 1 2 C-6.92 2 -14.84 2 -23 2 C-22.67 2.66 -22.34 3.32 -22 4 C-21.91288225 7.06242321 -21.8845154 10.10186465 -21.90234375 13.1640625 C-21.9037587 14.07127045 -21.90517365 14.97847839 -21.90663147 15.91317749 C-21.91223904 18.81715155 -21.92479282 21.72104915 -21.9375 24.625 C-21.94251402 26.59114472 -21.9470771 28.55729065 -21.95117188 30.5234375 C-21.96221094 35.3489879 -21.97948065 40.17448097 -22 45 C-24.82445592 45.94148531 -26.14171618 46.07311695 -29.01171875 45.87890625 C-29.69451904 45.83580322 -30.37731934 45.7927002 -31.08081055 45.74829102 C-32.37112183 45.65632446 -32.37112183 45.65632446 -33.6875 45.5625 C-37.8021875 45.2840625 -37.8021875 45.2840625 -42 45 C-42 52.59 -42 60.18 -42 68 C-36.39 68.33 -30.78 68.66 -25 69 C-25 69.33 -25 69.66 -25 70 C-27.97922593 70.02683987 -30.95821295 70.04676037 -33.9375 70.0625 C-34.78763672 70.07087891 -35.63777344 70.07925781 -36.51367188 70.08789062 C-37.32255859 70.09111328 -38.13144531 70.09433594 -38.96484375 70.09765625 C-39.7137085 70.10289307 -40.46257324 70.10812988 -41.23413086 70.11352539 C-43 70 -43 70 -44 69 C-44.09946453 67.23140807 -44.13080217 65.45888549 -44.1328125 63.6875 C-44.13410156 62.61242187 -44.13539063 61.53734375 -44.13671875 60.4296875 C-44.13091797 58.73199219 -44.13091797 58.73199219 -44.125 57 C-44.12886719 55.86820313 -44.13273437 54.73640625 -44.13671875 53.5703125 C-44.13542969 52.49523437 -44.13414062 51.42015625 -44.1328125 50.3125 C-44.13168457 49.31863281 -44.13055664 48.32476562 -44.12939453 47.30078125 C-44 45 -44 45 -43 44 C-41.65984779 43.84417697 -40.31241097 43.74955858 -38.96484375 43.68359375 C-38.15595703 43.64169922 -37.34707031 43.59980469 -36.51367188 43.55664062 C-35.66353516 43.51732422 -34.81339844 43.47800781 -33.9375 43.4375 C-33.08349609 43.39431641 -32.22949219 43.35113281 -31.34960938 43.30664062 C-29.23327963 43.20023298 -27.11666187 43.09958269 -25 43 C-25.00523682 41.7632251 -25.01047363 40.5264502 -25.01586914 39.25219727 C-25.03391561 34.68075275 -25.04543071 30.10931141 -25.05493164 25.5378418 C-25.05997267 23.55606559 -25.06680538 21.57429311 -25.07543945 19.5925293 C-25.08751515 16.75047891 -25.09323045 13.90847753 -25.09765625 11.06640625 C-25.10281754 10.17474258 -25.10797882 9.28307892 -25.11329651 8.36439514 C-25.11349177 6.24259399 -25.0621003 4.1208922 -25 2 C-23.00414299 0.00414299 -19.17944807 0.58750792 -16.4375 0.4375 C-15.74591797 0.39431641 -15.05433594 0.35113281 -14.34179688 0.30664062 C-9.55410494 0.02553662 -4.79562399 -0.03776082 0 0 Z " fill="#1F1921" transform="translate(503,33)"/>
<path d="M0 0 C0.33 0.99 0.66 1.98 1 3 C6.445 2.505 6.445 2.505 12 2 C12 2.66 12 3.32 12 4 C13.423125 3.690625 13.423125 3.690625 14.875 3.375 C15.90625 3.25125 16.9375 3.1275 18 3 C20.60680025 5.60680025 20.23599965 7.41068645 20.24884033 10.96035767 C20.24164978 11.79473358 20.23445923 12.6291095 20.22705078 13.48876953 C20.22734283 14.36688293 20.22763489 15.24499634 20.22793579 16.14971924 C20.22653912 19.06084981 20.21096213 21.97172647 20.1953125 24.8828125 C20.19158357 26.89777486 20.18873603 28.91273904 20.18673706 30.92770386 C20.17909118 36.23782332 20.1594345 41.54783382 20.1373291 46.85791016 C20.11689121 52.27374803 20.10773975 57.68960345 20.09765625 63.10546875 C20.07618951 73.73702711 20.04204207 84.3685045 20 95 C19.01 95.495 19.01 95.495 18 96 C17.02713334 65.66260217 16.87748074 35.35143914 17 5 C16.02417969 5.01160156 15.04835938 5.02320312 14.04296875 5.03515625 C12.77066406 5.04417969 11.49835938 5.05320312 10.1875 5.0625 C8.29064453 5.07990234 8.29064453 5.07990234 6.35546875 5.09765625 C3 5 3 5 0 4 C0 2.68 0 1.36 0 0 Z " fill="#100E13" transform="translate(461,97)"/>
<path d="M0 0 C0.66 0 1.32 0 2 0 C1.99815641 0.70329595 1.99631283 1.40659189 1.99441338 2.13119984 C1.95027483 19.23155964 1.91716317 36.33190499 1.89637566 53.43230915 C1.88605618 61.70188249 1.87198305 69.97141784 1.84912109 78.2409668 C1.82920773 85.44738467 1.81628845 92.65377504 1.81182301 99.86021966 C1.80921214 103.67717053 1.80306159 107.49404271 1.78853989 111.3109684 C1.77498838 114.90190139 1.7707724 118.49272307 1.77378464 122.0836792 C1.77297008 124.03331418 1.76219573 125.98293698 1.75115967 127.93254089 C1.753909 129.08940399 1.75665833 130.24626709 1.75949097 131.43818665 C1.75764738 132.44570638 1.75580379 133.45322611 1.75390434 134.49127674 C1.82562196 137.24848743 1.82562196 137.24848743 4 140 C2.68 139.67 1.36 139.34 0 139 C0 93.13 0 47.26 0 0 Z " fill="#1B151C" transform="translate(224,79)"/>
<path d="M0 0 C-13.37086471 2.96351717 -26.21989086 3.3990928 -39.87890625 3.29296875 C-42.02937013 3.2873585 -44.17983789 3.28309518 -46.33030701 3.28010559 C-51.93125398 3.2687692 -57.53195951 3.23940133 -63.1328125 3.20599365 C-68.87171159 3.17504821 -74.61065052 3.16154847 -80.34960938 3.14648438 C-91.56651108 3.11451858 -102.78323529 3.06346153 -114 3 C-114 2.67 -114 2.34 -114 2 C-104.60252997 1.00064041 -95.25717094 0.81452704 -85.81845665 0.73963928 C-83.13752586 0.71825798 -80.45669926 0.69126958 -77.77583313 0.66296387 C-72.07976406 0.60379044 -66.38364365 0.5514175 -60.6875 0.5 C-54.08728512 0.44030055 -47.48712204 0.37766312 -40.88700294 0.30812073 C-38.27345673 0.28199218 -35.6599036 0.26091366 -33.04631042 0.2401123 C-24.3238398 0.15635772 -15.689034 -0.13357639 -6.99690247 -0.88879395 C-4.35751781 -0.98673359 -2.48419444 -0.82187675 0 0 Z " fill="#1A1416" transform="translate(164,216)"/>
<path d="M0 0 C0.9215538 0.0199855 1.8431076 0.03997101 2.79258728 0.06056213 C3.83359085 0.08065842 4.87459442 0.1007547 5.94714355 0.12145996 C7.64555641 0.16201256 7.64555641 0.16201256 9.37828064 0.2033844 C10.53106003 0.22699539 11.68383942 0.25060638 12.87155151 0.27493286 C16.57052753 0.35179368 20.26930585 0.43572115 23.96812439 0.51979065 C26.46876561 0.5729889 28.96941661 0.62572942 31.47007751 0.67799377 C37.61538337 0.80743899 43.76054122 0.94269358 49.90562439 1.08229065 C49.90562439 1.74229065 49.90562439 2.40229065 49.90562439 3.08229065 C52.54562439 3.08229065 55.18562439 3.08229065 57.90562439 3.08229065 C57.90562439 3.74229065 57.90562439 4.40229065 57.90562439 5.08229065 C58.46249939 5.16479065 59.01937439 5.24729065 59.59312439 5.33229065 C62.60276645 6.30839078 64.52717191 8.03417879 66.90562439 10.08229065 C66.57562439 10.74229065 66.24562439 11.40229065 65.90562439 12.08229065 C65.3861322 11.74455627 64.86664001 11.4068219 64.33140564 11.05885315 C54.8082274 4.96824377 47.00292066 3.9277462 35.81968689 3.9846344 C34.41335999 3.98614502 34.41335999 3.98614502 32.97862244 3.98768616 C29.49594387 3.99289511 26.01328283 4.0068563 22.53062439 4.01979065 C14.73437439 4.04041565 6.93812439 4.06104065 -1.09437561 4.08229065 C-1.42437561 20.91229065 -1.75437561 37.74229065 -2.09437561 55.08229065 C-2.42437561 55.08229065 -2.75437561 55.08229065 -3.09437561 55.08229065 C-3.11964166 47.41017863 -3.13720684 39.73807725 -3.14930725 32.06593323 C-3.15434938 29.45362446 -3.16118286 26.84131853 -3.16981506 24.22901917 C-3.18188597 20.48348797 -3.18760497 16.73799393 -3.19203186 12.9924469 C-3.19719315 11.8164241 -3.20235443 10.64040131 -3.20767212 9.42874146 C-3.20778542 7.80717384 -3.20778542 7.80717384 -3.207901 6.15284729 C-3.21012161 5.1957637 -3.21234222 4.23868011 -3.21463013 3.25259399 C-3.05474433 0.36704181 -2.89064908 0.11357723 0 0 Z " fill="#1B191C" transform="translate(92.09437561035156,127.91770935058594)"/>
<path d="M0 0 C0.33 0 0.66 0 1 0 C1.02332815 18.10607616 1.04097876 36.21214843 1.05181217 54.31823635 C1.05697531 62.72461384 1.06401834 71.13098201 1.07543945 79.53735352 C1.08538575 86.86167932 1.0918533 94.18599837 1.09408849 101.51033074 C1.09539569 105.39090787 1.09848212 109.2714657 1.10573006 113.15203667 C1.11248942 116.80039557 1.11461713 120.44872711 1.11310768 124.09709167 C1.11351637 126.08288419 1.118912 128.0686737 1.12442017 130.05445862 C1.1230455 131.2254007 1.12167084 132.39634277 1.12025452 133.60276794 C1.12117631 134.62687995 1.1220981 135.65099195 1.12304783 136.70613766 C1 139 1 139 0 140 C-2.59359322 140.08851529 -5.16039691 140.11525945 -7.75390625 140.09765625 C-8.52935287 140.0962413 -9.3047995 140.09482635 -10.10374451 140.09336853 C-12.59003494 140.08775345 -15.0762366 140.07519846 -17.5625 140.0625 C-19.24413933 140.05748694 -20.92578006 140.0529237 -22.60742188 140.04882812 C-26.73831566 140.03777913 -30.86914276 140.02050445 -35 140 C-35.33 138.35 -35.66 136.7 -36 135 C-34.02 135.99 -32.04 136.98 -30 138 C-20.43 138 -10.86 138 -1 138 C-0.67 92.46 -0.34 46.92 0 0 Z " fill="#201E21" transform="translate(445,79)"/>
<path d="M0 0 C0.76313004 -0.0004985 1.52626007 -0.00099701 2.31251526 -0.00151062 C3.92557378 0.00082845 5.53863604 0.01054721 7.15161133 0.02709961 C9.61638169 0.05066152 12.08006773 0.04766342 14.54492188 0.04101562 C16.11328768 0.04659372 17.68164894 0.05370443 19.25 0.0625 C20.35328896 0.06113289 20.35328896 0.06113289 21.47886658 0.05973816 C25.51065816 0.11537563 27.47877349 0.50696487 31.19140625 2.36328125 C31.19140625 14.90328125 31.19140625 27.44328125 31.19140625 40.36328125 C30.86140625 40.36328125 30.53140625 40.36328125 30.19140625 40.36328125 C30.1663501 39.34903076 30.14129395 38.33478027 30.11547852 37.28979492 C30.0213098 33.52697098 29.9211122 29.76432756 29.8190918 26.00170898 C29.77577876 24.37317121 29.73410107 22.74458909 29.6940918 21.1159668 C29.63630122 18.7750919 29.57263227 16.43443949 29.5078125 14.09375 C29.49110001 13.36552536 29.47438751 12.63730072 29.45716858 11.88700867 C29.36673387 8.80161186 29.17416632 6.31156147 28.19140625 3.36328125 C23.6890503 3.33855766 19.18673389 3.32041006 14.68432617 3.30834961 C13.15274365 3.30332165 11.62116592 3.29649841 10.08959961 3.2878418 C7.88784603 3.27570896 5.68615592 3.27003758 3.484375 3.265625 C2.45765938 3.25788307 2.45765938 3.25788307 1.41020203 3.24998474 C-1.61765617 3.24962765 -3.91009517 3.39711506 -6.80859375 4.36328125 C-7.46859375 4.03328125 -8.12859375 3.70328125 -8.80859375 3.36328125 C-8.79699219 4.40484375 -8.78539062 5.44640625 -8.7734375 6.51953125 C-8.69831252 16.51232687 -9.05761741 26.39943451 -9.80859375 36.36328125 C-10.13859375 36.36328125 -10.46859375 36.36328125 -10.80859375 36.36328125 C-10.88275442 31.71854143 -10.9371999 27.07414626 -10.97338867 22.42895508 C-10.98847469 20.84881589 -11.00894625 19.26871856 -11.03491211 17.6887207 C-11.07130501 15.4173754 -11.08832137 13.14658366 -11.1015625 10.875 C-11.11704636 10.16864914 -11.13253021 9.46229828 -11.14848328 8.73454285 C-11.14941854 6.00850227 -11.06707008 3.85169126 -9.77832031 1.41650391 C-6.64908937 -0.25671155 -3.45998259 -0.04320461 0 0 Z " fill="#18141A" transform="translate(568.80859375,176.63671875)"/>
<path d="M0 0 C0.845625 -0.01417969 1.69125 -0.02835937 2.5625 -0.04296875 C5.19173314 0.20562861 6.78072806 0.77568637 9 2.1875 C10.46098845 5.1094769 10.11134901 7.68643475 10.09765625 10.9453125 C10.0962413 11.60836395 10.09482635 12.27141541 10.09336853 12.95455933 C10.08776754 15.07391863 10.075215 17.19317259 10.0625 19.3125 C10.05748512 20.74869639 10.05292219 22.18489444 10.04882812 23.62109375 C10.03779782 27.14326345 10.02053259 30.66537145 10 34.1875 C9.01 34.6825 9.01 34.6825 8 35.1875 C7.67 24.2975 7.34 13.4075 7 2.1875 C3.7 2.5175 0.4 2.8475 -3 3.1875 C-4.60875 3.31125 -6.2175 3.435 -7.875 3.5625 C-11.32309926 3.95308116 -13.60882404 4.48443152 -16 7.1875 C-16 8.1775 -16 9.1675 -16 10.1875 C-16.66 10.8475 -17.32 11.5075 -18 12.1875 C-18.804375 12.166875 -19.60875 12.14625 -20.4375 12.125 C-23.02270666 11.94006342 -23.02270666 11.94006342 -24.75 13.5 C-26.20303079 15.27896679 -26.20303079 15.27896679 -27 18.1875 C-29.0625 18.875 -29.0625 18.875 -31 19.1875 C-28.6944428 12.08287536 -22.76531467 7.15597647 -16.2578125 3.75390625 C-10.85680544 1.56625799 -5.85030035 0.0445907 0 0 Z " fill="#151216" transform="translate(296,74.8125)"/>
<path d="M0 0 C0.99 0.33 1.98 0.66 3 1 C3 14.86 3 28.72 3 43 C10.26 43 17.52 43 25 43 C25 43.33 25 43.66 25 44 C21.04168191 44.02892857 17.08339083 44.04677427 13.125 44.0625 C11.43310547 44.07506836 11.43310547 44.07506836 9.70703125 44.08789062 C8.63066406 44.09111328 7.55429687 44.09433594 6.4453125 44.09765625 C5.45031738 44.10289307 4.45532227 44.10812988 3.43017578 44.11352539 C1 44 1 44 -1 43 C-0.67 28.81 -0.34 14.62 0 0 Z " fill="#1A181A" transform="translate(514,34)"/>
<path d="M0 0 C0.99773438 0.23203125 0.99773438 0.23203125 2.015625 0.46875 C6.26212006 1.22467059 10.52454755 1.3868414 14.82421875 1.60546875 C19.89676339 1.89676339 19.89676339 1.89676339 21 3 C21.08758003 4.99964982 21.10696576 7.0023611 21.09765625 9.00390625 C21.09443359 10.21884766 21.09121094 11.43378906 21.08789062 12.68554688 C21.07532227 14.60463867 21.07532227 14.60463867 21.0625 16.5625 C21.05798828 17.84576172 21.05347656 19.12902344 21.04882812 20.45117188 C21.03699545 23.63416022 21.02051068 26.81705762 21 30 C18.0780231 31.46098845 15.50106525 31.11134901 12.2421875 31.09765625 C11.24761032 31.09553383 11.24761032 31.09553383 10.23294067 31.09336853 C8.11358137 31.08776754 5.99432741 31.075215 3.875 31.0625 C2.43880361 31.05748512 1.00260556 31.05292219 -0.43359375 31.04882812 C-3.95576345 31.03779782 -7.47787145 31.02053259 -11 31 C-11 30.67 -11 30.34 -11 30 C-7.04905593 29.7142614 -3.0980461 29.42945198 0.85302734 29.14550781 C2.19744686 29.04875896 3.54184805 28.95175511 4.88623047 28.85449219 C6.81733453 28.71482562 8.74851009 28.57614863 10.6796875 28.4375 C12.42354736 28.31181641 12.42354736 28.31181641 14.20263672 28.18359375 C15.79949292 28.07879048 17.39970832 28 19 28 C19 19.75 19 11.5 19 3 C10.585 3.495 10.585 3.495 2 4 C1.34 2.68 0.68 1.36 0 0 Z " fill="#181316" transform="translate(520,188)"/>
<path d="M0 0 C0.66 0.33 1.32 0.66 2 1 C2.05802698 4.43742918 2.09360486 7.87473253 2.125 11.3125 C2.15013672 12.77719727 2.15013672 12.77719727 2.17578125 14.27148438 C2.18222656 15.20927734 2.18867187 16.14707031 2.1953125 17.11328125 C2.20578613 17.97735596 2.21625977 18.84143066 2.22705078 19.73168945 C2 22 2 22 0 25 C-2.24658203 25.34057617 -2.24658203 25.34057617 -5.0078125 25.29296875 C-5.99394531 25.28330078 -6.98007812 25.27363281 -7.99609375 25.26367188 C-9.02863281 25.23853516 -10.06117188 25.21339844 -11.125 25.1875 C-12.68541016 25.16719727 -12.68541016 25.16719727 -14.27734375 25.14648438 C-16.85207627 25.11105228 -19.4257833 25.06165221 -22 25 C-21.505 23.515 -21.505 23.515 -21 22 C-14.73 21.67 -8.46 21.34 -2 21 C-1.71102097 14.83738196 -1.71102097 14.83738196 -1.43188477 8.67431641 C-1.39377686 7.90780762 -1.35566895 7.14129883 -1.31640625 6.3515625 C-1.27974854 5.56604004 -1.24309082 4.78051758 -1.20532227 3.97119141 C-1 2 -1 2 0 0 Z " fill="#1C191D" transform="translate(539,78)"/>
<path d="M0 0 C1.14168542 3.42505625 0.71358039 4.53753511 0 8 C-0.10473514 10.51279339 -0.16406019 12.99960121 -0.17358398 15.51245117 C-0.180271 16.25124008 -0.18695801 16.99002899 -0.19384766 17.75120544 C-0.20784906 19.34825717 -0.21975853 20.94532833 -0.22979546 22.5424099 C-0.24625692 25.06800375 -0.26949263 27.59345189 -0.29469299 30.11897278 C-0.36535653 37.29693318 -0.42576704 44.47494969 -0.47680664 51.65307617 C-0.50853321 56.04852413 -0.54977995 60.44379812 -0.59700203 64.83910561 C-0.61304578 66.51486411 -0.62535634 68.19066258 -0.63390923 69.86647606 C-0.64601517 72.20307579 -0.67014026 74.53926281 -0.69702148 76.87573242 C-0.69761063 77.57134277 -0.69819977 78.26695312 -0.69880676 78.98364258 C-0.7720914 83.7720914 -0.7720914 83.7720914 -3 86 C-6.07275391 86.22705078 -6.07275391 86.22705078 -9.9765625 86.1953125 C-10.66181 86.1924826 -11.3470575 86.18965271 -12.05307007 86.18673706 C-14.24389027 86.17553281 -16.43430316 86.15042859 -18.625 86.125 C-20.1093691 86.11497048 -21.5937446 86.10584458 -23.078125 86.09765625 C-26.71888261 86.07559294 -30.35940156 86.04106176 -34 86 C-34 85.67 -34 85.34 -34 85 C-32.80455566 84.96241577 -32.80455566 84.96241577 -31.58496094 84.92407227 C-27.97314778 84.80801211 -24.36158898 84.68533069 -20.75 84.5625 C-19.49574219 84.52318359 -18.24148437 84.48386719 -16.94921875 84.44335938 C-15.74394531 84.40146484 -14.53867188 84.35957031 -13.296875 84.31640625 C-12.18666992 84.27974854 -11.07646484 84.24309082 -9.93261719 84.20532227 C-7.45369733 84.03176486 -5.38192116 83.63873339 -3 83 C-3.00222061 82.01472321 -3.00444122 81.02944641 -3.00672913 80.01431274 C-3.02697219 70.74376653 -3.04197778 61.47322479 -3.05181217 52.20266151 C-3.05703803 47.4362051 -3.06413031 42.66976648 -3.07543945 37.90332031 C-3.08627885 33.3062561 -3.09227908 28.70920903 -3.09487724 24.11213303 C-3.09672958 22.35539861 -3.10034657 20.59866516 -3.10573006 18.84193802 C-3.11295443 16.38760576 -3.11399035 13.93334503 -3.11352539 11.47900391 C-3.11712067 10.74748611 -3.12071594 10.01596832 -3.12442017 9.26228333 C-3.11405216 4.22810432 -3.11405216 4.22810432 -2 2 C-1.34 2 -0.68 2 0 2 C0 1.34 0 0.68 0 0 Z " fill="#201C22" transform="translate(264,133)"/>
<path d="M0 0 C0.33 0 0.66 0 1 0 C1.00808685 1.20856155 1.01617371 2.41712311 1.02450562 3.66230774 C1.10190064 15.03704853 1.18962303 26.41166872 1.28752708 37.78625202 C1.33752993 43.63441394 1.38385962 49.48255744 1.421875 55.33081055 C1.45867738 60.97187248 1.50502357 66.61278179 1.55806351 72.25371361 C1.57663432 74.40871702 1.59173228 76.56375317 1.60334396 78.71880531 C1.62016041 81.73107243 1.64918434 84.74298795 1.68115234 87.75512695 C1.68331253 88.65136276 1.68547272 89.54759857 1.68769836 90.47099304 C1.69886185 91.29128998 1.71002533 92.11158691 1.7215271 92.95674133 C1.72705786 93.66928731 1.73258862 94.38183329 1.73828697 95.11597157 C1.90683048 97.3314335 1.90683048 97.3314335 4 100 C2.68 99.67 1.36 99.34 0 99 C0 66.33 0 33.66 0 0 Z " fill="#282127" transform="translate(224,119)"/>
<path d="M0 0 C1.41623216 -0.05447047 2.83308191 -0.09300508 4.25 -0.125 C5.03890625 -0.14820312 5.8278125 -0.17140625 6.640625 -0.1953125 C9.24614317 0.02037609 10.79986977 0.6078822 13 2 C14.46098845 4.9219769 14.11134901 7.49893475 14.09765625 10.7578125 C14.0962413 11.42086395 14.09482635 12.08391541 14.09336853 12.76705933 C14.08776754 14.88641863 14.075215 17.00567259 14.0625 19.125 C14.05748512 20.56119639 14.05292219 21.99739444 14.04882812 23.43359375 C14.03779782 26.95576345 14.02053259 30.47787145 14 34 C13.01 34.495 13.01 34.495 12 35 C11.67 24.11 11.34 13.22 11 2 C9.35 2.33 7.7 2.66 6 3 C2.6875 2.0625 2.6875 2.0625 0 1 C0 0.67 0 0.34 0 0 Z " fill="#292229" transform="translate(292,75)"/>
<path d="M0 0 C0.33 0 0.66 0 1 0 C1.33 10.89 1.66 21.78 2 33 C-2 30 -2 30 -2.48583984 27.87451172 C-2.47762207 27.06771973 -2.4694043 26.26092773 -2.4609375 25.4296875 C-2.45707031 24.5325 -2.45320312 23.6353125 -2.44921875 22.7109375 C-2.42472656 21.77507812 -2.40023437 20.83921875 -2.375 19.875 C-2.37371094 18.96234375 -2.37242187 18.0496875 -2.37109375 17.109375 C-2.29457252 11.14071886 -1.47782266 5.78124226 0 0 Z " fill="#161416" transform="translate(516,152)"/>
<path d="M0 0 C2.0625 0.4375 2.0625 0.4375 4 1 C3.01 1 2.02 1 1 1 C1 8.59 1 16.18 1 24 C6.61 24.33 12.22 24.66 18 25 C18 25.33 18 25.66 18 26 C15.02077407 26.02683987 12.04178705 26.04676037 9.0625 26.0625 C7.78729492 26.07506836 7.78729492 26.07506836 6.48632812 26.08789062 C5.67744141 26.09111328 4.86855469 26.09433594 4.03515625 26.09765625 C3.2862915 26.10289307 2.53742676 26.10812988 1.76586914 26.11352539 C0 26 0 26 -1 25 C-1.09946453 23.23140807 -1.13080217 21.45888549 -1.1328125 19.6875 C-1.13410156 18.61242187 -1.13539063 17.53734375 -1.13671875 16.4296875 C-1.13091797 14.73199219 -1.13091797 14.73199219 -1.125 13 C-1.12886719 11.86820313 -1.13273437 10.73640625 -1.13671875 9.5703125 C-1.13542969 8.49523437 -1.13414062 7.42015625 -1.1328125 6.3125 C-1.13168457 5.31863281 -1.13055664 4.32476562 -1.12939453 3.30078125 C-1 1 -1 1 0 0 Z " fill="#2B282D" transform="translate(460,77)"/>
<path d="M0 0 C4.02624645 6.03936968 4.17947536 12.11056787 4.1875 19.1875 C4.1887085 20.22136841 4.1887085 20.22136841 4.18994141 21.27612305 C4.14972514 24.96752966 3.87128184 28.41031884 3 32 C2.67 32 2.34 32 2 32 C-0.66666667 11.33333333 -0.66666667 11.33333333 2 6 C1.01 6 0.02 6 -1 6 C-0.67 4.02 -0.34 2.04 0 0 Z " fill="#181618" transform="translate(197,54)"/>
<path d="M0 0 C4.89584367 8.48612903 4.07240184 21.17783221 2 30.4375 C1.67 31.613125 1.34 32.78875 1 34 C0.67 34 0.34 34 0 34 C0.00523682 33.22809326 0.01047363 32.45618652 0.01586914 31.66088867 C0.03663242 28.16976737 0.04965811 24.67865905 0.0625 21.1875 C0.07087891 19.97255859 0.07925781 18.75761719 0.08789062 17.50585938 C0.09111328 16.34248047 0.09433594 15.17910156 0.09765625 13.98046875 C0.10289307 12.90692139 0.10812988 11.83337402 0.11352539 10.72729492 C0.12194588 7.90500635 0.12194588 7.90500635 -1 5 C-0.5625 2.3125 -0.5625 2.3125 0 0 Z " fill="#232124" transform="translate(204,146)"/>
<path d="M0 0 C1.4540625 0.0309375 1.4540625 0.0309375 2.9375 0.0625 C-2.21042844 5.21042844 -11.63319301 5.09253488 -18.625 5.1875 C-22.52013319 5.1469257 -26.22492109 4.71570492 -30.0625 4.0625 C-30.0625 3.7325 -30.0625 3.4025 -30.0625 3.0625 C-28.88107422 3.09730469 -28.88107422 3.09730469 -27.67578125 3.1328125 C-19.64865655 3.26580628 -11.92753177 2.7566971 -4.0625 1.0625 C-3.0625 0.0625 -3.0625 0.0625 0 0 Z " fill="#1F171D" transform="translate(387.0625,217.9375)"/>
<path d="M0 0 C0.66 0.66 1.32 1.32 2 2 C4.48590326 2.18727088 6.85826122 2.25579285 9.34375 2.23046875 C10.43109436 2.22978142 10.43109436 2.22978142 11.54040527 2.2290802 C13.07366573 2.22605799 14.60692312 2.21817258 16.14013672 2.20581055 C18.49067022 2.18757239 20.84080943 2.18530074 23.19140625 2.18554688 C24.67969092 2.18063091 26.1679729 2.17480225 27.65625 2.16796875 C28.36148804 2.16685593 29.06672607 2.1657431 29.79333496 2.16459656 C33.52148513 2.18012447 33.52148513 2.18012447 37 1 C37.99 1.66 38.98 2.32 40 3 C39 4 39 4 35.39819336 4.11352539 C33.79540144 4.11336625 32.1926044 4.10767063 30.58984375 4.09765625 C29.74780899 4.0962413 28.90577423 4.09482635 28.03822327 4.09336853 C25.33794665 4.08775263 22.63775172 4.07519748 19.9375 4.0625 C18.11132932 4.05748705 16.28515734 4.05292379 14.45898438 4.04882812 C9.97262458 4.03777804 5.48632616 4.02050279 1 4 C0.67 2.68 0.34 1.36 0 0 Z " fill="#1E171B" transform="translate(559,215)"/>
<path d="M0 0 C0 0.66 0 1.32 0 2 C-0.99 2.495 -0.99 2.495 -2 3 C-1.34 3.66 -0.68 4.32 0 5 C-2.05233685 7.2477975 -3.00667261 8.0022242 -6 9 C-8.1875 7.75 -8.1875 7.75 -10 6 C-10 5.01 -10 4.02 -10 3 C-9.05125 2.690625 -8.1025 2.38125 -7.125 2.0625 C-1.05882353 0 -1.05882353 0 0 0 Z " fill="#110D11" transform="translate(152,96)"/>
<path d="M0 0 C0.33 0 0.66 0 1 0 C3.4516129 14.09677419 3.4516129 14.09677419 1 19 C1.66 19 2.32 19 3 19 C3.33 20.32 3.66 21.64 4 23 C2.68 23.33 1.36 23.66 0 24 C-1.27491216 21.45017567 -1.02596616 19.83534576 -0.87890625 16.9921875 C-0.83056641 16.00605469 -0.78222656 15.01992187 -0.73242188 14.00390625 C-0.67634766 12.97136719 -0.62027344 11.93882813 -0.5625 10.875 C-0.51029297 9.83472656 -0.45808594 8.79445313 -0.40429688 7.72265625 C-0.27439054 5.14814884 -0.13941748 2.57400704 0 0 Z " fill="#1B1A1D" transform="translate(260,78)"/>
<path d="M0 0 C1.25683594 0.04833984 2.51367188 0.09667969 3.80859375 0.14648438 C5.12730469 0.20255859 6.44601563 0.25863281 7.8046875 0.31640625 C9.14451188 0.36963038 10.48435558 0.42237076 11.82421875 0.47460938 C15.10959637 0.60460633 18.39469428 0.73958311 21.6796875 0.87890625 C21.6796875 1.20890625 21.6796875 1.53890625 21.6796875 1.87890625 C12.1096875 2.20890625 2.5396875 2.53890625 -7.3203125 2.87890625 C-7.6503125 2.21890625 -7.9803125 1.55890625 -8.3203125 0.87890625 C-5.47357495 -0.54446252 -3.17415903 -0.12868212 0 0 Z " fill="#140E10" transform="translate(235.3203125,216.12109375)"/>
<path d="M0 0 C2.72869407 0.03287583 5.2966618 0.56397771 8 1 C4.71195019 3.91227269 2.40114397 5.49701212 -2 6 C-2 2 -2 2 0 0 Z " fill="#0C090D" transform="translate(176,105)"/>
<path d="M0 0 C0.33 0.99 0.66 1.98 1 3 C6.445 2.505 6.445 2.505 12 2 C12 2.66 12 3.32 12 4 C13.98 3.67 15.96 3.34 18 3 C18 3.99 18 4.98 18 6 C15.56212615 5.8590651 13.12482147 5.71245458 10.6875 5.5625 C9.65206055 5.50352539 9.65206055 5.50352539 8.59570312 5.44335938 C5.52838465 5.25072585 2.93031848 4.97677283 0 4 C0 2.68 0 1.36 0 0 Z " fill="#0F0A11" transform="translate(461,97)"/>
<path d="M0 0 C2.475 0.495 2.475 0.495 5 1 C5 1.66 5 2.32 5 3 C5.99 3.33 6.98 3.66 8 4 C7.67 4.66 7.34 5.32 7 6 C6.01 5.34 5.02 4.68 4 4 C3.67 4.99 3.34 5.98 3 7 C1.5 5.75 1.5 5.75 0 4 C0 2.68 0 1.36 0 0 Z " fill="#07060A" transform="translate(512,182)"/>
<path d="M0 0 C-4.23883323 3.13058867 -7.06375254 3.27362033 -12.25 2.8125 C-13.49265625 2.71582031 -14.7353125 2.61914062 -16.015625 2.51953125 C-17.00046875 2.34808594 -17.9853125 2.17664063 -19 2 C-19.33 1.34 -19.66 0.68 -20 0 C-18.53626953 0.01740234 -18.53626953 0.01740234 -17.04296875 0.03515625 C-15.77066406 0.04417969 -14.49835938 0.05320313 -13.1875 0.0625 C-11.29064453 0.07990234 -11.29064453 0.07990234 -9.35546875 0.09765625 C-0.48179872 -0.16059957 -0.48179872 -0.16059957 0 0 Z " fill="#1C121C" transform="translate(391,189)"/>
<path d="M0 0 C2.31 0.33 4.62 0.66 7 1 C3.79663178 3.83374881 1.21912747 4.5205537 -3 5 C-2.01 3.35 -1.02 1.7 0 0 Z " fill="#131011" transform="translate(171,209)"/>
<path d="M0 0 C0.33 0 0.66 0 1 0 C0.96519531 1.12019531 0.93039063 2.24039063 0.89453125 3.39453125 C0.86639161 4.86717251 0.83909163 6.33982998 0.8125 7.8125 C0.78736328 8.55048828 0.76222656 9.28847656 0.73632812 10.04882812 C0.61931563 14.32017538 0.61931563 14.32017538 2.51171875 18.01171875 C3.00285156 18.33785156 3.49398437 18.66398437 4 19 C3.34 19.33 2.68 19.66 2 20 C-0.92746298 17.55431378 -0.92746298 17.55431378 -1.2487793 15.09887695 C-1.19117432 14.40238037 -1.13356934 13.70588379 -1.07421875 12.98828125 C-1.01943359 12.23095703 -0.96464844 11.47363281 -0.90820312 10.69335938 C-0.83537109 9.90767578 -0.76253906 9.12199219 -0.6875 8.3125 C-0.62626953 7.51521484 -0.56503906 6.71792969 -0.50195312 5.89648438 C-0.34886031 3.92983047 -0.17629291 1.96471011 0 0 Z " fill="#0F0D10" transform="translate(88,83)"/>
<path d="M0 0 C1.41623216 -0.05447047 2.83308191 -0.09300508 4.25 -0.125 C5.03890625 -0.14820312 5.8278125 -0.17140625 6.640625 -0.1953125 C9.26966951 0.02232364 10.81048189 0.53709188 13 2 C13.33 2.99 13.66 3.98 14 5 C13.34 5.66 12.68 6.32 12 7 C11.67 5.35 11.34 3.7 11 2 C9.948125 2.309375 9.948125 2.309375 8.875 2.625 C5.39813928 3.07850357 3.22601877 2.27540277 0 1 C0 0.67 0 0.34 0 0 Z " fill="#252326" transform="translate(292,75)"/>
<path d="M0 0 C-0.33 0.33 -0.66 0.66 -1 1 C-0.34 1.66 0.32 2.32 1 3 C-4.625 4.125 -4.625 4.125 -8 3 C-8 2.01 -8 1.02 -8 0 C-4.94736336 -0.98120464 -3.05263664 -0.98120464 0 0 Z " fill="#131014" transform="translate(174,112)"/>
<path d="M0 0 C3.63 0.33 7.26 0.66 11 1 C11.33 1.99 11.66 2.98 12 4 C10.35 4.66 8.7 5.32 7 6 C7 5.01 7 4.02 7 3 C5.824375 3.0928125 5.824375 3.0928125 4.625 3.1875 C3.75875 3.125625 2.8925 3.06375 2 3 C1.34 2.01 0.68 1.02 0 0 Z " fill="#080608" transform="translate(503,33)"/>
<path d="M0 0 C0.66 0 1.32 0 2 0 C0.68775452 3.93673644 -0.91910327 6.22719294 -4 9 C-4 8.34 -4 7.68 -4 7 C-4.66 7 -5.32 7 -6 7 C-6 6.01 -6 5.02 -6 4 C-4.68 4.33 -3.36 4.66 -2 5 C-2 4.34 -2 3.68 -2 3 C-1.34 3 -0.68 3 0 3 C0 2.01 0 1.02 0 0 Z " fill="#1A181C" transform="translate(199,188)"/>
<path d="M0 0 C1.98 0.99 1.98 0.99 4 2 C3.67 4.64 3.34 7.28 3 10 C0.70366176 6.55549263 0.45983515 4.06187717 0 0 Z " fill="#0D0B0F" transform="translate(480,193)"/>
<path d="M0 0 C2.64 0 5.28 0 8 0 C6.02 0.99 6.02 0.99 4 2 C4 2.99 4 3.98 4 5 C2.68 5.33 1.36 5.66 0 6 C0 4.02 0 2.04 0 0 Z " fill="#0A070B" transform="translate(412,78)"/>
<path d="M0 0 C0.66 0 1.32 0 2 0 C2 0.66 2 1.32 2 2 C2.8353125 2.12375 2.8353125 2.12375 3.6875 2.25 C6.69714206 3.22610013 8.62154752 4.95188814 11 7 C10.67 7.66 10.34 8.32 10 9 C8.3278148 7.88321917 6.66237197 6.75633648 5 5.625 C3.6078125 4.68527344 3.6078125 4.68527344 2.1875 3.7265625 C1.465625 3.15679687 0.74375 2.58703125 0 2 C0 1.34 0 0.68 0 0 Z " fill="#1B181B" transform="translate(148,131)"/>
<path d="M0 0 C0.99 0 1.98 0 3 0 C3 0.99 3 1.98 3 3 C3.99 3.66 4.98 4.32 6 5 C2.7 5 -0.6 5 -4 5 C-3.01 4.34 -2.02 3.68 -1 3 C-0.67 2.01 -0.34 1.02 0 0 Z " fill="#0F0D0F" transform="translate(298,105)"/>
<path d="M0 0 C0.7425 0.185625 1.485 0.37125 2.25 0.5625 C4.94990963 0.99203108 6.44631077 0.85122974 9 0 C7.37660195 1.70884005 5.70680947 3.37446717 4 5 C3.34 5 2.68 5 2 5 C2 4.01 2 3.02 2 2 C1.34 2 0.68 2 0 2 C0 1.34 0 0.68 0 0 Z " fill="#161215" transform="translate(180,203)"/>
<path d="M0 0 C4.0154778 2.6769852 4.60203473 5.20915627 5.625 9.8125 C5.74875 10.534375 5.8725 11.25625 6 12 C3.32098068 9.68118495 2.33795597 7.68185532 1.3125 4.3125 C1.06113281 3.50425781 0.80976563 2.69601563 0.55078125 1.86328125 C0.36902344 1.24839844 0.18726563 0.63351563 0 0 Z " fill="#1A1619" transform="translate(322,191)"/>
<path d="M0 0 C0.66 0.99 1.32 1.98 2 3 C1.67 3.66 1.34 4.32 1 5 C1.66 5 2.32 5 3 5 C3.33 6.32 3.66 7.64 4 9 C2.68 9.33 1.36 9.66 0 10 C-1.6415049 6.7169902 -0.51888624 3.57454967 0 0 Z " fill="#120E10" transform="translate(260,92)"/>
<path d="M0 0 C0.99 0 1.98 0 3 0 C3 0.66 3 1.32 3 2 C3.66 2.33 4.32 2.66 5 3 C2.525 4.485 2.525 4.485 0 6 C0 5.34 0 4.68 0 4 C-0.66 3.34 -1.32 2.68 -2 2 C-1.34 2 -0.68 2 0 2 C0 1.34 0 0.68 0 0 Z " fill="#0E0A0D" transform="translate(394,210)"/>
<path d="M0 0 C3.81684226 1.55500981 6.19195732 4.03595495 9 7 C7.68 6.67 6.36 6.34 5 6 C5 5.34 5 4.68 5 4 C3.02 3.34 1.04 2.68 -1 2 C-0.67 1.34 -0.34 0.68 0 0 Z " fill="#1A1318" transform="translate(180,33)"/>
<path d="M0 0 C1.98 0.99 3.96 1.98 6 3 C6 3.66 6 4.32 6 5 C4.35 5 2.7 5 1 5 C0.67 3.35 0.34 1.7 0 0 Z " fill="#151216" transform="translate(409,214)"/>
<path d="M0 0 C1.32 0 2.64 0 4 0 C4.33 0.99 4.66 1.98 5 3 C3.02 3.33 1.04 3.66 -1 4 C-0.67 2.68 -0.34 1.36 0 0 Z " fill="#140E14" transform="translate(407,201)"/>
<path d="M0 0 C1.32 0.66 2.64 1.32 4 2 C3 3 3 3 0.49609375 3.09765625 C-1.01791016 3.08025391 -1.01791016 3.08025391 -2.5625 3.0625 C-3.57441406 3.05347656 -4.58632813 3.04445312 -5.62890625 3.03515625 C-6.41136719 3.02355469 -7.19382812 3.01195312 -8 3 C-8 2.67 -8 2.34 -8 2 C-6.865625 1.855625 -5.73125 1.71125 -4.5625 1.5625 C-1.19222799 1.38828522 -1.19222799 1.38828522 0 0 Z " fill="#181314" transform="translate(595,216)"/>
<path d="M0 0 C2 1 2 1 2 1 Z M-0.8125 0.9375 C-0.214375 1.288125 0.38375 1.63875 1 2 C0.67 2.66 0.34 3.32 0 4 C-2.86724686 3.42655063 -3.8614515 3.1385485 -6 1 C-3 0 -3 0 -0.8125 0.9375 Z " fill="#0E0B0E" transform="translate(498,211)"/>
</svg>
